<?xml version="1.0" encoding="utf-8"?>
<svg xmlns="http://www.w3.org/2000/svg" xmlns:xlink="http://www.w3.org/1999/xlink" style="background: rgb(8, 170, 225); display: block; position: relative; shape-rendering: auto;" width="163" height="163" preserveAspectRatio="xMidYMid" viewBox="0 0 163 163"><g transform="scale(0.64)"><g transform="translate(-158.178 158.178)">
  <line x1="245.30889360814749" x2="232.05100220308557" y1="214.21594773114683" y2="227.47383913620874" stroke-width="5" stroke="#01cbe1" stroke-linecap="round"></line><line x1="245.30889360814749" x2="232.05100220308557" y1="-297.7840522688532" y2="-284.52616086379123" stroke-width="5" stroke="#01cbe1" stroke-linecap="round"></line><line x1="501.3088936081475" x2="488.05100220308555" y1="-297.7840522688532" y2="-284.52616086379123" stroke-width="5" stroke="#01cbe1" stroke-linecap="round"></line><line x1="757.3088936081475" x2="744.0510022030855" y1="-297.7840522688532" y2="-284.52616086379123" stroke-width="5" stroke="#01cbe1" stroke-linecap="round"></line><line x1="245.30889360814749" x2="232.05100220308557" y1="-41.78405226885317" y2="-28.52616086379126" stroke-width="5" stroke="#01cbe1" stroke-linecap="round"></line><line x1="501.3088936081475" x2="488.05100220308555" y1="-41.78405226885317" y2="-28.52616086379126" stroke-width="5" stroke="#01cbe1" stroke-linecap="round"></line><line x1="757.3088936081475" x2="744.0510022030855" y1="-41.78405226885317" y2="-28.52616086379126" stroke-width="5" stroke="#01cbe1" stroke-linecap="round"></line><line x1="245.30889360814749" x2="232.05100220308557" y1="214.21594773114683" y2="227.47383913620874" stroke-width="5" stroke="#01cbe1" stroke-linecap="round"></line><line x1="501.3088936081475" x2="488.05100220308555" y1="214.21594773114683" y2="227.47383913620874" stroke-width="5" stroke="#01cbe1" stroke-linecap="round"></line><line x1="757.3088936081475" x2="744.0510022030855" y1="214.21594773114683" y2="227.47383913620874" stroke-width="5" stroke="#01cbe1" stroke-linecap="round"></line><line x1="72.08137556059019" x2="57.17908263357269" y1="151.94617812106776" y2="166.84847104808523" stroke-width="5" stroke="#01cbe1" stroke-linecap="round"></line><line x1="72.08137556059019" x2="57.17908263357269" y1="-360.05382187893224" y2="-345.15152895191477" stroke-width="5" stroke="#01cbe1" stroke-linecap="round"></line><line x1="328.0813755605902" x2="313.1790826335727" y1="-360.05382187893224" y2="-345.15152895191477" stroke-width="5" stroke="#01cbe1" stroke-linecap="round"></line><line x1="584.0813755605902" x2="569.1790826335726" y1="-360.05382187893224" y2="-345.15152895191477" stroke-width="5" stroke="#01cbe1" stroke-linecap="round"></line><line x1="72.08137556059019" x2="57.17908263357269" y1="-104.05382187893224" y2="-89.15152895191477" stroke-width="5" stroke="#01cbe1" stroke-linecap="round"></line><line x1="328.0813755605902" x2="313.1790826335727" y1="-104.05382187893224" y2="-89.15152895191477" stroke-width="5" stroke="#01cbe1" stroke-linecap="round"></line><line x1="584.0813755605902" x2="569.1790826335726" y1="-104.05382187893224" y2="-89.15152895191477" stroke-width="5" stroke="#01cbe1" stroke-linecap="round"></line><line x1="72.08137556059019" x2="57.17908263357269" y1="151.94617812106776" y2="166.84847104808523" stroke-width="5" stroke="#01cbe1" stroke-linecap="round"></line><line x1="328.0813755605902" x2="313.1790826335727" y1="151.94617812106776" y2="166.84847104808523" stroke-width="5" stroke="#01cbe1" stroke-linecap="round"></line><line x1="584.0813755605902" x2="569.1790826335726" y1="151.94617812106776" y2="166.84847104808523" stroke-width="5" stroke="#01cbe1" stroke-linecap="round"></line><line x1="83.14857596233077" x2="70.66217517790443" y1="-2.1120523116176813" y2="10.37434847280867" stroke-width="5" stroke="#01cbe1" stroke-linecap="round"></line><line x1="83.14857596233077" x2="70.66217517790443" y1="-514.1120523116177" y2="-501.62565152719134" stroke-width="5" stroke="#01cbe1" stroke-linecap="round"></line><line x1="339.14857596233077" x2="326.66217517790443" y1="-514.1120523116177" y2="-501.62565152719134" stroke-width="5" stroke="#01cbe1" stroke-linecap="round"></line><line x1="595.1485759623308" x2="582.6621751779044" y1="-514.1120523116177" y2="-501.62565152719134" stroke-width="5" stroke="#01cbe1" stroke-linecap="round"></line><line x1="83.14857596233077" x2="70.66217517790443" y1="-258.1120523116177" y2="-245.62565152719134" stroke-width="5" stroke="#01cbe1" stroke-linecap="round"></line><line x1="339.14857596233077" x2="326.66217517790443" y1="-258.1120523116177" y2="-245.62565152719134" stroke-width="5" stroke="#01cbe1" stroke-linecap="round"></line><line x1="595.1485759623308" x2="582.6621751779044" y1="-258.1120523116177" y2="-245.62565152719134" stroke-width="5" stroke="#01cbe1" stroke-linecap="round"></line><line x1="83.14857596233077" x2="70.66217517790443" y1="-2.1120523116176813" y2="10.37434847280867" stroke-width="5" stroke="#01cbe1" stroke-linecap="round"></line><line x1="339.14857596233077" x2="326.66217517790443" y1="-2.1120523116176813" y2="10.37434847280867" stroke-width="5" stroke="#01cbe1" stroke-linecap="round"></line><line x1="595.1485759623308" x2="582.6621751779044" y1="-2.1120523116176813" y2="10.37434847280867" stroke-width="5" stroke="#01cbe1" stroke-linecap="round"></line><line x1="83.14857596233077" x2="70.66217517790443" y1="253.88794768838233" y2="266.37434847280866" stroke-width="5" stroke="#01cbe1" stroke-linecap="round"></line><line x1="231.59870874042358" x2="218.9630815007794" y1="61.3355863667879" y2="73.97121360643209" stroke-width="5" stroke="#01cbe1" stroke-linecap="round"></line><line x1="231.59870874042358" x2="218.9630815007794" y1="-450.6644136332121" y2="-438.0287863935679" stroke-width="5" stroke="#01cbe1" stroke-linecap="round"></line><line x1="487.5987087404236" x2="474.96308150077937" y1="-450.6644136332121" y2="-438.0287863935679" stroke-width="5" stroke="#01cbe1" stroke-linecap="round"></line><line x1="743.5987087404236" x2="730.9630815007794" y1="-450.6644136332121" y2="-438.0287863935679" stroke-width="5" stroke="#01cbe1" stroke-linecap="round"></line><line x1="231.59870874042358" x2="218.9630815007794" y1="-194.6644136332121" y2="-182.0287863935679" stroke-width="5" stroke="#01cbe1" stroke-linecap="round"></line><line x1="487.5987087404236" x2="474.96308150077937" y1="-194.6644136332121" y2="-182.0287863935679" stroke-width="5" stroke="#01cbe1" stroke-linecap="round"></line><line x1="743.5987087404236" x2="730.9630815007794" y1="-194.6644136332121" y2="-182.0287863935679" stroke-width="5" stroke="#01cbe1" stroke-linecap="round"></line><line x1="231.59870874042358" x2="218.9630815007794" y1="61.3355863667879" y2="73.97121360643209" stroke-width="5" stroke="#01cbe1" stroke-linecap="round"></line><line x1="487.5987087404236" x2="474.96308150077937" y1="61.3355863667879" y2="73.97121360643209" stroke-width="5" stroke="#01cbe1" stroke-linecap="round"></line><line x1="743.5987087404236" x2="730.9630815007794" y1="61.3355863667879" y2="73.97121360643209" stroke-width="5" stroke="#01cbe1" stroke-linecap="round"></line><line x1="169.94483941151967" x2="160.25034335741802" y1="192.87005206885638" y2="202.56454812295803" stroke-width="5" stroke="#01cbe1" stroke-linecap="round"></line><line x1="169.94483941151967" x2="160.25034335741802" y1="-319.12994793114365" y2="-309.43545187704194" stroke-width="5" stroke="#01cbe1" stroke-linecap="round"></line><line x1="425.94483941151964" x2="416.25034335741805" y1="-319.12994793114365" y2="-309.43545187704194" stroke-width="5" stroke="#01cbe1" stroke-linecap="round"></line><line x1="681.9448394115196" x2="672.250343357418" y1="-319.12994793114365" y2="-309.43545187704194" stroke-width="5" stroke="#01cbe1" stroke-linecap="round"></line><line x1="169.94483941151967" x2="160.25034335741802" y1="-63.12994793114362" y2="-53.43545187704197" stroke-width="5" stroke="#01cbe1" stroke-linecap="round"></line><line x1="425.94483941151964" x2="416.25034335741805" y1="-63.12994793114362" y2="-53.43545187704197" stroke-width="5" stroke="#01cbe1" stroke-linecap="round"></line><line x1="681.9448394115196" x2="672.250343357418" y1="-63.12994793114362" y2="-53.43545187704197" stroke-width="5" stroke="#01cbe1" stroke-linecap="round"></line><line x1="169.94483941151967" x2="160.25034335741802" y1="192.87005206885638" y2="202.56454812295803" stroke-width="5" stroke="#01cbe1" stroke-linecap="round"></line><line x1="425.94483941151964" x2="416.25034335741805" y1="192.87005206885638" y2="202.56454812295803" stroke-width="5" stroke="#01cbe1" stroke-linecap="round"></line><line x1="681.9448394115196" x2="672.250343357418" y1="192.87005206885638" y2="202.56454812295803" stroke-width="5" stroke="#01cbe1" stroke-linecap="round"></line><line x1="16.02528076856142" x2="2.2999074763487037" y1="138.41791708556272" y2="152.14329037777546" stroke-width="5" stroke="#01cbe1" stroke-linecap="round"></line><line x1="16.02528076856142" x2="2.2999074763487037" y1="-373.58208291443725" y2="-359.85670962222457" stroke-width="5" stroke="#01cbe1" stroke-linecap="round"></line><line x1="272.0252807685614" x2="258.2999074763487" y1="-373.58208291443725" y2="-359.85670962222457" stroke-width="5" stroke="#01cbe1" stroke-linecap="round"></line><line x1="528.0252807685614" x2="514.2999074763487" y1="-373.58208291443725" y2="-359.85670962222457" stroke-width="5" stroke="#01cbe1" stroke-linecap="round"></line><line x1="16.02528076856142" x2="2.2999074763487037" y1="-117.58208291443728" y2="-103.85670962222454" stroke-width="5" stroke="#01cbe1" stroke-linecap="round"></line><line x1="272.0252807685614" x2="258.2999074763487" y1="-117.58208291443728" y2="-103.85670962222454" stroke-width="5" stroke="#01cbe1" stroke-linecap="round"></line><line x1="528.0252807685614" x2="514.2999074763487" y1="-117.58208291443728" y2="-103.85670962222454" stroke-width="5" stroke="#01cbe1" stroke-linecap="round"></line><line x1="16.02528076856142" x2="2.2999074763487037" y1="138.41791708556272" y2="152.14329037777546" stroke-width="5" stroke="#01cbe1" stroke-linecap="round"></line><line x1="272.0252807685614" x2="258.2999074763487" y1="138.41791708556272" y2="152.14329037777546" stroke-width="5" stroke="#01cbe1" stroke-linecap="round"></line><line x1="528.0252807685614" x2="514.2999074763487" y1="138.41791708556272" y2="152.14329037777546" stroke-width="5" stroke="#01cbe1" stroke-linecap="round"></line>
  <animateTransform attributeName="transform" type="translate" values="0 0;-256 256" keyTimes="0;1" repeatCount="indefinite" dur="4.166666666666667s"></animateTransform>
</g><g transform="translate(-60.3557 60.3557)">
  <line x1="231.13560176072596" x2="221.7665839964142" y1="82.50670462026099" y2="91.87572238457275" stroke-width="5" stroke="#38e0f5" stroke-linecap="round"></line><line x1="231.13560176072596" x2="221.7665839964142" y1="-429.49329537973904" y2="-420.1242776154272" stroke-width="5" stroke="#38e0f5" stroke-linecap="round"></line><line x1="487.135601760726" x2="477.76658399641417" y1="-429.49329537973904" y2="-420.1242776154272" stroke-width="5" stroke="#38e0f5" stroke-linecap="round"></line><line x1="743.135601760726" x2="733.7665839964142" y1="-429.49329537973904" y2="-420.1242776154272" stroke-width="5" stroke="#38e0f5" stroke-linecap="round"></line><line x1="231.13560176072596" x2="221.7665839964142" y1="-173.493295379739" y2="-164.12427761542725" stroke-width="5" stroke="#38e0f5" stroke-linecap="round"></line><line x1="487.135601760726" x2="477.76658399641417" y1="-173.493295379739" y2="-164.12427761542725" stroke-width="5" stroke="#38e0f5" stroke-linecap="round"></line><line x1="743.135601760726" x2="733.7665839964142" y1="-173.493295379739" y2="-164.12427761542725" stroke-width="5" stroke="#38e0f5" stroke-linecap="round"></line><line x1="231.13560176072596" x2="221.7665839964142" y1="82.50670462026099" y2="91.87572238457275" stroke-width="5" stroke="#38e0f5" stroke-linecap="round"></line><line x1="487.135601760726" x2="477.76658399641417" y1="82.50670462026099" y2="91.87572238457275" stroke-width="5" stroke="#38e0f5" stroke-linecap="round"></line><line x1="743.135601760726" x2="733.7665839964142" y1="82.50670462026099" y2="91.87572238457275" stroke-width="5" stroke="#38e0f5" stroke-linecap="round"></line><line x1="65.40394722963964" x2="54.011731498913996" y1="73.07477445210964" y2="84.46699018283527" stroke-width="5" stroke="#38e0f5" stroke-linecap="round"></line><line x1="65.40394722963964" x2="54.011731498913996" y1="-438.92522554789036" y2="-427.5330098171647" stroke-width="5" stroke="#38e0f5" stroke-linecap="round"></line><line x1="321.40394722963964" x2="310.011731498914" y1="-438.92522554789036" y2="-427.5330098171647" stroke-width="5" stroke="#38e0f5" stroke-linecap="round"></line><line x1="577.4039472296397" x2="566.011731498914" y1="-438.92522554789036" y2="-427.5330098171647" stroke-width="5" stroke="#38e0f5" stroke-linecap="round"></line><line x1="65.40394722963964" x2="54.011731498913996" y1="-182.92522554789036" y2="-171.53300981716473" stroke-width="5" stroke="#38e0f5" stroke-linecap="round"></line><line x1="321.40394722963964" x2="310.011731498914" y1="-182.92522554789036" y2="-171.53300981716473" stroke-width="5" stroke="#38e0f5" stroke-linecap="round"></line><line x1="577.4039472296397" x2="566.011731498914" y1="-182.92522554789036" y2="-171.53300981716473" stroke-width="5" stroke="#38e0f5" stroke-linecap="round"></line><line x1="65.40394722963964" x2="54.011731498913996" y1="73.07477445210964" y2="84.46699018283527" stroke-width="5" stroke="#38e0f5" stroke-linecap="round"></line><line x1="321.40394722963964" x2="310.011731498914" y1="73.07477445210964" y2="84.46699018283527" stroke-width="5" stroke="#38e0f5" stroke-linecap="round"></line><line x1="577.4039472296397" x2="566.011731498914" y1="73.07477445210964" y2="84.46699018283527" stroke-width="5" stroke="#38e0f5" stroke-linecap="round"></line><line x1="36.2449853029896" x2="24.115922985703342" y1="111.3819508193421" y2="123.51101313662836" stroke-width="5" stroke="#38e0f5" stroke-linecap="round"></line><line x1="36.2449853029896" x2="24.115922985703342" y1="-400.6180491806579" y2="-388.4889868633716" stroke-width="5" stroke="#38e0f5" stroke-linecap="round"></line><line x1="292.2449853029896" x2="280.1159229857033" y1="-400.6180491806579" y2="-388.4889868633716" stroke-width="5" stroke="#38e0f5" stroke-linecap="round"></line><line x1="548.2449853029896" x2="536.1159229857034" y1="-400.6180491806579" y2="-388.4889868633716" stroke-width="5" stroke="#38e0f5" stroke-linecap="round"></line><line x1="36.2449853029896" x2="24.115922985703342" y1="-144.61804918065792" y2="-132.48898686337162" stroke-width="5" stroke="#38e0f5" stroke-linecap="round"></line><line x1="292.2449853029896" x2="280.1159229857033" y1="-144.61804918065792" y2="-132.48898686337162" stroke-width="5" stroke="#38e0f5" stroke-linecap="round"></line><line x1="548.2449853029896" x2="536.1159229857034" y1="-144.61804918065792" y2="-132.48898686337162" stroke-width="5" stroke="#38e0f5" stroke-linecap="round"></line><line x1="36.2449853029896" x2="24.115922985703342" y1="111.3819508193421" y2="123.51101313662836" stroke-width="5" stroke="#38e0f5" stroke-linecap="round"></line><line x1="292.2449853029896" x2="280.1159229857033" y1="111.3819508193421" y2="123.51101313662836" stroke-width="5" stroke="#38e0f5" stroke-linecap="round"></line><line x1="548.2449853029896" x2="536.1159229857034" y1="111.3819508193421" y2="123.51101313662836" stroke-width="5" stroke="#38e0f5" stroke-linecap="round"></line><line x1="124.54657026803498" x2="97.53168632900714" y1="18.746695254741738" y2="45.76157919376958" stroke-width="5" stroke="#38e0f5" stroke-linecap="round"></line><line x1="124.54657026803498" x2="97.53168632900714" y1="-493.2533047452583" y2="-466.2384208062304" stroke-width="5" stroke="#38e0f5" stroke-linecap="round"></line><line x1="380.546570268035" x2="353.53168632900713" y1="-493.2533047452583" y2="-466.2384208062304" stroke-width="5" stroke="#38e0f5" stroke-linecap="round"></line><line x1="636.546570268035" x2="609.5316863290071" y1="-493.2533047452583" y2="-466.2384208062304" stroke-width="5" stroke="#38e0f5" stroke-linecap="round"></line><line x1="124.54657026803498" x2="97.53168632900714" y1="-237.25330474525828" y2="-210.2384208062304" stroke-width="5" stroke="#38e0f5" stroke-linecap="round"></line><line x1="380.546570268035" x2="353.53168632900713" y1="-237.25330474525828" y2="-210.2384208062304" stroke-width="5" stroke="#38e0f5" stroke-linecap="round"></line><line x1="636.546570268035" x2="609.5316863290071" y1="-237.25330474525828" y2="-210.2384208062304" stroke-width="5" stroke="#38e0f5" stroke-linecap="round"></line><line x1="124.54657026803498" x2="97.53168632900714" y1="18.746695254741738" y2="45.76157919376958" stroke-width="5" stroke="#38e0f5" stroke-linecap="round"></line><line x1="380.546570268035" x2="353.53168632900713" y1="18.746695254741738" y2="45.76157919376958" stroke-width="5" stroke="#38e0f5" stroke-linecap="round"></line><line x1="636.546570268035" x2="609.5316863290071" y1="18.746695254741738" y2="45.76157919376958" stroke-width="5" stroke="#38e0f5" stroke-linecap="round"></line><line x1="258.525754144608" x2="232.0328950746534" y1="49.06628645796794" y2="75.55914552792255" stroke-width="5" stroke="#38e0f5" stroke-linecap="round"></line><line x1="258.525754144608" x2="232.0328950746534" y1="-462.9337135420321" y2="-436.44085447207743" stroke-width="5" stroke="#38e0f5" stroke-linecap="round"></line><line x1="514.5257541446081" x2="488.0328950746534" y1="-462.9337135420321" y2="-436.44085447207743" stroke-width="5" stroke="#38e0f5" stroke-linecap="round"></line><line x1="770.5257541446081" x2="744.0328950746534" y1="-462.9337135420321" y2="-436.44085447207743" stroke-width="5" stroke="#38e0f5" stroke-linecap="round"></line><line x1="258.525754144608" x2="232.0328950746534" y1="-206.93371354203205" y2="-180.44085447207743" stroke-width="5" stroke="#38e0f5" stroke-linecap="round"></line><line x1="514.5257541446081" x2="488.0328950746534" y1="-206.93371354203205" y2="-180.44085447207743" stroke-width="5" stroke="#38e0f5" stroke-linecap="round"></line><line x1="770.5257541446081" x2="744.0328950746534" y1="-206.93371354203205" y2="-180.44085447207743" stroke-width="5" stroke="#38e0f5" stroke-linecap="round"></line><line x1="258.525754144608" x2="232.0328950746534" y1="49.06628645796794" y2="75.55914552792255" stroke-width="5" stroke="#38e0f5" stroke-linecap="round"></line><line x1="514.5257541446081" x2="488.0328950746534" y1="49.06628645796794" y2="75.55914552792255" stroke-width="5" stroke="#38e0f5" stroke-linecap="round"></line><line x1="770.5257541446081" x2="744.0328950746534" y1="49.06628645796794" y2="75.55914552792255" stroke-width="5" stroke="#38e0f5" stroke-linecap="round"></line><line x1="2.5257541446080154" x2="-23.967104925346604" y1="49.06628645796794" y2="75.55914552792255" stroke-width="5" stroke="#38e0f5" stroke-linecap="round"></line><line x1="92.2260531057454" x2="84.80059492096512" y1="0.5271800807856257" y2="7.952638265565896" stroke-width="5" stroke="#38e0f5" stroke-linecap="round"></line><line x1="92.2260531057454" x2="84.80059492096512" y1="-511.4728199192144" y2="-504.0473617344341" stroke-width="5" stroke="#38e0f5" stroke-linecap="round"></line><line x1="348.2260531057454" x2="340.8005949209651" y1="-511.4728199192144" y2="-504.0473617344341" stroke-width="5" stroke="#38e0f5" stroke-linecap="round"></line><line x1="604.2260531057455" x2="596.8005949209651" y1="-511.4728199192144" y2="-504.0473617344341" stroke-width="5" stroke="#38e0f5" stroke-linecap="round"></line><line x1="92.2260531057454" x2="84.80059492096512" y1="-255.47281991921437" y2="-248.0473617344341" stroke-width="5" stroke="#38e0f5" stroke-linecap="round"></line><line x1="348.2260531057454" x2="340.8005949209651" y1="-255.47281991921437" y2="-248.0473617344341" stroke-width="5" stroke="#38e0f5" stroke-linecap="round"></line><line x1="604.2260531057455" x2="596.8005949209651" y1="-255.47281991921437" y2="-248.0473617344341" stroke-width="5" stroke="#38e0f5" stroke-linecap="round"></line><line x1="92.2260531057454" x2="84.80059492096512" y1="0.5271800807856257" y2="7.952638265565896" stroke-width="5" stroke="#38e0f5" stroke-linecap="round"></line><line x1="348.2260531057454" x2="340.8005949209651" y1="0.5271800807856257" y2="7.952638265565896" stroke-width="5" stroke="#38e0f5" stroke-linecap="round"></line><line x1="604.2260531057455" x2="596.8005949209651" y1="0.5271800807856257" y2="7.952638265565896" stroke-width="5" stroke="#38e0f5" stroke-linecap="round"></line>
  <animateTransform attributeName="transform" type="translate" values="0 0;-256 256" keyTimes="0;1" repeatCount="indefinite" dur="2.0833333333333335s"></animateTransform>
</g><g transform="translate(-219.066 219.066)">
  <line x1="178.85647801973658" x2="154.1735637187316" y1="153.6330177008503" y2="178.3159320018553" stroke-width="5" stroke="#a9f0f9" stroke-linecap="round"></line><line x1="178.85647801973658" x2="154.1735637187316" y1="-358.3669822991497" y2="-333.6840679981447" stroke-width="5" stroke="#a9f0f9" stroke-linecap="round"></line><line x1="434.8564780197366" x2="410.1735637187316" y1="-358.3669822991497" y2="-333.6840679981447" stroke-width="5" stroke="#a9f0f9" stroke-linecap="round"></line><line x1="690.8564780197366" x2="666.1735637187317" y1="-358.3669822991497" y2="-333.6840679981447" stroke-width="5" stroke="#a9f0f9" stroke-linecap="round"></line><line x1="178.85647801973658" x2="154.1735637187316" y1="-102.3669822991497" y2="-77.68406799814471" stroke-width="5" stroke="#a9f0f9" stroke-linecap="round"></line><line x1="434.8564780197366" x2="410.1735637187316" y1="-102.3669822991497" y2="-77.68406799814471" stroke-width="5" stroke="#a9f0f9" stroke-linecap="round"></line><line x1="690.8564780197366" x2="666.1735637187317" y1="-102.3669822991497" y2="-77.68406799814471" stroke-width="5" stroke="#a9f0f9" stroke-linecap="round"></line><line x1="178.85647801973658" x2="154.1735637187316" y1="153.6330177008503" y2="178.3159320018553" stroke-width="5" stroke="#a9f0f9" stroke-linecap="round"></line><line x1="434.8564780197366" x2="410.1735637187316" y1="153.6330177008503" y2="178.3159320018553" stroke-width="5" stroke="#a9f0f9" stroke-linecap="round"></line><line x1="690.8564780197366" x2="666.1735637187317" y1="153.6330177008503" y2="178.3159320018553" stroke-width="5" stroke="#a9f0f9" stroke-linecap="round"></line><line x1="66.56409886063801" x2="39.115115690695525" y1="223.027041393336" y2="250.4760245632785" stroke-width="5" stroke="#a9f0f9" stroke-linecap="round"></line><line x1="66.56409886063801" x2="39.115115690695525" y1="-288.972958606664" y2="-261.5239754367215" stroke-width="5" stroke="#a9f0f9" stroke-linecap="round"></line><line x1="322.564098860638" x2="295.1151156906955" y1="-288.972958606664" y2="-261.5239754367215" stroke-width="5" stroke="#a9f0f9" stroke-linecap="round"></line><line x1="578.5640988606381" x2="551.1151156906956" y1="-288.972958606664" y2="-261.5239754367215" stroke-width="5" stroke="#a9f0f9" stroke-linecap="round"></line><line x1="66.56409886063801" x2="39.115115690695525" y1="-32.97295860666401" y2="-5.523975436721514" stroke-width="5" stroke="#a9f0f9" stroke-linecap="round"></line><line x1="322.564098860638" x2="295.1151156906955" y1="-32.97295860666401" y2="-5.523975436721514" stroke-width="5" stroke="#a9f0f9" stroke-linecap="round"></line><line x1="578.5640988606381" x2="551.1151156906956" y1="-32.97295860666401" y2="-5.523975436721514" stroke-width="5" stroke="#a9f0f9" stroke-linecap="round"></line><line x1="66.56409886063801" x2="39.115115690695525" y1="223.027041393336" y2="250.4760245632785" stroke-width="5" stroke="#a9f0f9" stroke-linecap="round"></line><line x1="322.564098860638" x2="295.1151156906955" y1="223.027041393336" y2="250.4760245632785" stroke-width="5" stroke="#a9f0f9" stroke-linecap="round"></line><line x1="578.5640988606381" x2="551.1151156906956" y1="223.027041393336" y2="250.4760245632785" stroke-width="5" stroke="#a9f0f9" stroke-linecap="round"></line><line x1="232.2747305475025" x2="220.67134988392115" y1="179.30751400442495" y2="190.91089466800628" stroke-width="5" stroke="#38e0f5" stroke-linecap="round"></line><line x1="232.2747305475025" x2="220.67134988392115" y1="-332.69248599557505" y2="-321.0891053319937" stroke-width="5" stroke="#38e0f5" stroke-linecap="round"></line><line x1="488.2747305475025" x2="476.67134988392115" y1="-332.69248599557505" y2="-321.0891053319937" stroke-width="5" stroke="#38e0f5" stroke-linecap="round"></line><line x1="744.2747305475025" x2="732.6713498839212" y1="-332.69248599557505" y2="-321.0891053319937" stroke-width="5" stroke="#38e0f5" stroke-linecap="round"></line><line x1="232.2747305475025" x2="220.67134988392115" y1="-76.69248599557505" y2="-65.08910533199372" stroke-width="5" stroke="#38e0f5" stroke-linecap="round"></line><line x1="488.2747305475025" x2="476.67134988392115" y1="-76.69248599557505" y2="-65.08910533199372" stroke-width="5" stroke="#38e0f5" stroke-linecap="round"></line><line x1="744.2747305475025" x2="732.6713498839212" y1="-76.69248599557505" y2="-65.08910533199372" stroke-width="5" stroke="#38e0f5" stroke-linecap="round"></line><line x1="232.2747305475025" x2="220.67134988392115" y1="179.30751400442495" y2="190.91089466800628" stroke-width="5" stroke="#38e0f5" stroke-linecap="round"></line><line x1="488.2747305475025" x2="476.67134988392115" y1="179.30751400442495" y2="190.91089466800628" stroke-width="5" stroke="#38e0f5" stroke-linecap="round"></line><line x1="744.2747305475025" x2="732.6713498839212" y1="179.30751400442495" y2="190.91089466800628" stroke-width="5" stroke="#38e0f5" stroke-linecap="round"></line><line x1="35.708282146231184" x2="24.485668803797967" y1="97.23742797508599" y2="108.46004131751921" stroke-width="5" stroke="#a9f0f9" stroke-linecap="round"></line><line x1="35.708282146231184" x2="24.485668803797967" y1="-414.762572024914" y2="-403.5399586824808" stroke-width="5" stroke="#a9f0f9" stroke-linecap="round"></line><line x1="291.70828214623117" x2="280.485668803798" y1="-414.762572024914" y2="-403.5399586824808" stroke-width="5" stroke="#a9f0f9" stroke-linecap="round"></line><line x1="547.7082821462312" x2="536.4856688037979" y1="-414.762572024914" y2="-403.5399586824808" stroke-width="5" stroke="#a9f0f9" stroke-linecap="round"></line><line x1="35.708282146231184" x2="24.485668803797967" y1="-158.762572024914" y2="-147.5399586824808" stroke-width="5" stroke="#a9f0f9" stroke-linecap="round"></line><line x1="291.70828214623117" x2="280.485668803798" y1="-158.762572024914" y2="-147.5399586824808" stroke-width="5" stroke="#a9f0f9" stroke-linecap="round"></line><line x1="547.7082821462312" x2="536.4856688037979" y1="-158.762572024914" y2="-147.5399586824808" stroke-width="5" stroke="#a9f0f9" stroke-linecap="round"></line><line x1="35.708282146231184" x2="24.485668803797967" y1="97.23742797508599" y2="108.46004131751921" stroke-width="5" stroke="#a9f0f9" stroke-linecap="round"></line><line x1="291.70828214623117" x2="280.485668803798" y1="97.23742797508599" y2="108.46004131751921" stroke-width="5" stroke="#a9f0f9" stroke-linecap="round"></line><line x1="547.7082821462312" x2="536.4856688037979" y1="97.23742797508599" y2="108.46004131751921" stroke-width="5" stroke="#a9f0f9" stroke-linecap="round"></line><line x1="91.2408657144647" x2="74.70618327114833" y1="164.42780586467546" y2="180.9624883079918" stroke-width="5" stroke="#a9f0f9" stroke-linecap="round"></line><line x1="91.2408657144647" x2="74.70618327114833" y1="-347.57219413532454" y2="-331.0375116920082" stroke-width="5" stroke="#a9f0f9" stroke-linecap="round"></line><line x1="347.2408657144647" x2="330.70618327114835" y1="-347.57219413532454" y2="-331.0375116920082" stroke-width="5" stroke="#a9f0f9" stroke-linecap="round"></line><line x1="603.2408657144647" x2="586.7061832711483" y1="-347.57219413532454" y2="-331.0375116920082" stroke-width="5" stroke="#a9f0f9" stroke-linecap="round"></line><line x1="91.2408657144647" x2="74.70618327114833" y1="-91.57219413532454" y2="-75.0375116920082" stroke-width="5" stroke="#a9f0f9" stroke-linecap="round"></line><line x1="347.2408657144647" x2="330.70618327114835" y1="-91.57219413532454" y2="-75.0375116920082" stroke-width="5" stroke="#a9f0f9" stroke-linecap="round"></line><line x1="603.2408657144647" x2="586.7061832711483" y1="-91.57219413532454" y2="-75.0375116920082" stroke-width="5" stroke="#a9f0f9" stroke-linecap="round"></line><line x1="91.2408657144647" x2="74.70618327114833" y1="164.42780586467546" y2="180.9624883079918" stroke-width="5" stroke="#a9f0f9" stroke-linecap="round"></line><line x1="347.2408657144647" x2="330.70618327114835" y1="164.42780586467546" y2="180.9624883079918" stroke-width="5" stroke="#a9f0f9" stroke-linecap="round"></line><line x1="603.2408657144647" x2="586.7061832711483" y1="164.42780586467546" y2="180.9624883079918" stroke-width="5" stroke="#a9f0f9" stroke-linecap="round"></line><line x1="188.56573512182894" x2="159.3444998773818" y1="192.86309408870227" y2="222.0843293331494" stroke-width="5" stroke="#a9f0f9" stroke-linecap="round"></line><line x1="188.56573512182894" x2="159.3444998773818" y1="-319.13690591129773" y2="-289.9156706668506" stroke-width="5" stroke="#a9f0f9" stroke-linecap="round"></line><line x1="444.56573512182894" x2="415.3444998773818" y1="-319.13690591129773" y2="-289.9156706668506" stroke-width="5" stroke="#a9f0f9" stroke-linecap="round"></line><line x1="700.565735121829" x2="671.3444998773818" y1="-319.13690591129773" y2="-289.9156706668506" stroke-width="5" stroke="#a9f0f9" stroke-linecap="round"></line><line x1="188.56573512182894" x2="159.3444998773818" y1="-63.13690591129773" y2="-33.91567066685059" stroke-width="5" stroke="#a9f0f9" stroke-linecap="round"></line><line x1="444.56573512182894" x2="415.3444998773818" y1="-63.13690591129773" y2="-33.91567066685059" stroke-width="5" stroke="#a9f0f9" stroke-linecap="round"></line><line x1="700.565735121829" x2="671.3444998773818" y1="-63.13690591129773" y2="-33.91567066685059" stroke-width="5" stroke="#a9f0f9" stroke-linecap="round"></line><line x1="188.56573512182894" x2="159.3444998773818" y1="192.86309408870227" y2="222.0843293331494" stroke-width="5" stroke="#a9f0f9" stroke-linecap="round"></line><line x1="444.56573512182894" x2="415.3444998773818" y1="192.86309408870227" y2="222.0843293331494" stroke-width="5" stroke="#a9f0f9" stroke-linecap="round"></line><line x1="700.565735121829" x2="671.3444998773818" y1="192.86309408870227" y2="222.0843293331494" stroke-width="5" stroke="#a9f0f9" stroke-linecap="round"></line>
  <animateTransform attributeName="transform" type="translate" values="0 0;-256 256" keyTimes="0;1" repeatCount="indefinite" dur="1.3888888888888888s"></animateTransform>
</g></g></svg>