<?xml version="1.0" encoding="utf-8"?>
<svg xmlns="http://www.w3.org/2000/svg" xmlns:xlink="http://www.w3.org/1999/xlink" style="background: rgb(8, 170, 225); display: block; position: relative; shape-rendering: auto;" width="163" height="163" preserveAspectRatio="xMidYMid" viewBox="0 0 163 163"><g transform="scale(0.64)"><g transform="translate(-189.44 189.44)">
  <line x1="234.98775333002288" x2="229.87532839049527" y1="222.0687084148875" y2="227.18113335441512" stroke-width="5" stroke="#01cbe1" stroke-linecap="round"></line><line x1="234.98775333002288" x2="229.87532839049527" y1="-289.9312915851125" y2="-284.8188666455849" stroke-width="5" stroke="#01cbe1" stroke-linecap="round"></line><line x1="490.9877533300229" x2="485.87532839049527" y1="-289.9312915851125" y2="-284.8188666455849" stroke-width="5" stroke="#01cbe1" stroke-linecap="round"></line><line x1="746.9877533300229" x2="741.8753283904953" y1="-289.9312915851125" y2="-284.8188666455849" stroke-width="5" stroke="#01cbe1" stroke-linecap="round"></line><line x1="234.98775333002288" x2="229.87532839049527" y1="-33.93129158511249" y2="-28.818866645584876" stroke-width="5" stroke="#01cbe1" stroke-linecap="round"></line><line x1="490.9877533300229" x2="485.87532839049527" y1="-33.93129158511249" y2="-28.818866645584876" stroke-width="5" stroke="#01cbe1" stroke-linecap="round"></line><line x1="746.9877533300229" x2="741.8753283904953" y1="-33.93129158511249" y2="-28.818866645584876" stroke-width="5" stroke="#01cbe1" stroke-linecap="round"></line><line x1="234.98775333002288" x2="229.87532839049527" y1="222.0687084148875" y2="227.18113335441512" stroke-width="5" stroke="#01cbe1" stroke-linecap="round"></line><line x1="490.9877533300229" x2="485.87532839049527" y1="222.0687084148875" y2="227.18113335441512" stroke-width="5" stroke="#01cbe1" stroke-linecap="round"></line><line x1="746.9877533300229" x2="741.8753283904953" y1="222.0687084148875" y2="227.18113335441512" stroke-width="5" stroke="#01cbe1" stroke-linecap="round"></line><line x1="244.0805674356522" x2="239.18949783937575" y1="79.89924612412489" y2="84.79031572040134" stroke-width="5" stroke="#01cbe1" stroke-linecap="round"></line><line x1="244.0805674356522" x2="239.18949783937575" y1="-432.1007538758751" y2="-427.20968427959866" stroke-width="5" stroke="#01cbe1" stroke-linecap="round"></line><line x1="500.0805674356522" x2="495.18949783937575" y1="-432.1007538758751" y2="-427.20968427959866" stroke-width="5" stroke="#01cbe1" stroke-linecap="round"></line><line x1="756.0805674356523" x2="751.1894978393757" y1="-432.1007538758751" y2="-427.20968427959866" stroke-width="5" stroke="#01cbe1" stroke-linecap="round"></line><line x1="244.0805674356522" x2="239.18949783937575" y1="-176.1007538758751" y2="-171.20968427959866" stroke-width="5" stroke="#01cbe1" stroke-linecap="round"></line><line x1="500.0805674356522" x2="495.18949783937575" y1="-176.1007538758751" y2="-171.20968427959866" stroke-width="5" stroke="#01cbe1" stroke-linecap="round"></line><line x1="756.0805674356523" x2="751.1894978393757" y1="-176.1007538758751" y2="-171.20968427959866" stroke-width="5" stroke="#01cbe1" stroke-linecap="round"></line><line x1="244.0805674356522" x2="239.18949783937575" y1="79.89924612412489" y2="84.79031572040134" stroke-width="5" stroke="#01cbe1" stroke-linecap="round"></line><line x1="500.0805674356522" x2="495.18949783937575" y1="79.89924612412489" y2="84.79031572040134" stroke-width="5" stroke="#01cbe1" stroke-linecap="round"></line><line x1="756.0805674356523" x2="751.1894978393757" y1="79.89924612412489" y2="84.79031572040134" stroke-width="5" stroke="#01cbe1" stroke-linecap="round"></line><line x1="117.63720269206807" x2="115.14626512394464" y1="154.21138052921222" y2="156.70231809733568" stroke-width="5" stroke="#01cbe1" stroke-linecap="round"></line><line x1="117.63720269206807" x2="115.14626512394464" y1="-357.7886194707878" y2="-355.2976819026643" stroke-width="5" stroke="#01cbe1" stroke-linecap="round"></line><line x1="373.63720269206806" x2="371.14626512394466" y1="-357.7886194707878" y2="-355.2976819026643" stroke-width="5" stroke="#01cbe1" stroke-linecap="round"></line><line x1="629.6372026920681" x2="627.1462651239447" y1="-357.7886194707878" y2="-355.2976819026643" stroke-width="5" stroke="#01cbe1" stroke-linecap="round"></line><line x1="117.63720269206807" x2="115.14626512394464" y1="-101.78861947078778" y2="-99.29768190266432" stroke-width="5" stroke="#01cbe1" stroke-linecap="round"></line><line x1="373.63720269206806" x2="371.14626512394466" y1="-101.78861947078778" y2="-99.29768190266432" stroke-width="5" stroke="#01cbe1" stroke-linecap="round"></line><line x1="629.6372026920681" x2="627.1462651239447" y1="-101.78861947078778" y2="-99.29768190266432" stroke-width="5" stroke="#01cbe1" stroke-linecap="round"></line><line x1="117.63720269206807" x2="115.14626512394464" y1="154.21138052921222" y2="156.70231809733568" stroke-width="5" stroke="#01cbe1" stroke-linecap="round"></line><line x1="373.63720269206806" x2="371.14626512394466" y1="154.21138052921222" y2="156.70231809733568" stroke-width="5" stroke="#01cbe1" stroke-linecap="round"></line><line x1="629.6372026920681" x2="627.1462651239447" y1="154.21138052921222" y2="156.70231809733568" stroke-width="5" stroke="#01cbe1" stroke-linecap="round"></line><line x1="2.765151663710101" x2="-2.1119444262541562" y1="52.27838166895489" y2="57.15547775891915" stroke-width="5" stroke="#01cbe1" stroke-linecap="round"></line><line x1="2.765151663710101" x2="-2.1119444262541562" y1="-459.7216183310451" y2="-454.8445222410809" stroke-width="5" stroke="#01cbe1" stroke-linecap="round"></line><line x1="258.7651516637101" x2="253.88805557374585" y1="-459.7216183310451" y2="-454.8445222410809" stroke-width="5" stroke="#01cbe1" stroke-linecap="round"></line><line x1="514.7651516637101" x2="509.8880555737458" y1="-459.7216183310451" y2="-454.8445222410809" stroke-width="5" stroke="#01cbe1" stroke-linecap="round"></line><line x1="2.765151663710101" x2="-2.1119444262541562" y1="-203.7216183310451" y2="-198.84452224108085" stroke-width="5" stroke="#01cbe1" stroke-linecap="round"></line><line x1="258.7651516637101" x2="253.88805557374585" y1="-203.7216183310451" y2="-198.84452224108085" stroke-width="5" stroke="#01cbe1" stroke-linecap="round"></line><line x1="514.7651516637101" x2="509.8880555737458" y1="-203.7216183310451" y2="-198.84452224108085" stroke-width="5" stroke="#01cbe1" stroke-linecap="round"></line><line x1="2.765151663710101" x2="-2.1119444262541562" y1="52.27838166895489" y2="57.15547775891915" stroke-width="5" stroke="#01cbe1" stroke-linecap="round"></line><line x1="258.7651516637101" x2="253.88805557374585" y1="52.27838166895489" y2="57.15547775891915" stroke-width="5" stroke="#01cbe1" stroke-linecap="round"></line><line x1="514.7651516637101" x2="509.8880555737458" y1="52.27838166895489" y2="57.15547775891915" stroke-width="5" stroke="#01cbe1" stroke-linecap="round"></line><line x1="238.4229958506744" x2="232.7670941182755" y1="203.2783839776605" y2="208.93428571005938" stroke-width="5" stroke="#01cbe1" stroke-linecap="round"></line><line x1="238.4229958506744" x2="232.7670941182755" y1="-308.7216160223395" y2="-303.0657142899406" stroke-width="5" stroke="#01cbe1" stroke-linecap="round"></line><line x1="494.4229958506744" x2="488.7670941182755" y1="-308.7216160223395" y2="-303.0657142899406" stroke-width="5" stroke="#01cbe1" stroke-linecap="round"></line><line x1="750.4229958506744" x2="744.7670941182755" y1="-308.7216160223395" y2="-303.0657142899406" stroke-width="5" stroke="#01cbe1" stroke-linecap="round"></line><line x1="238.4229958506744" x2="232.7670941182755" y1="-52.721616022339504" y2="-47.065714289940615" stroke-width="5" stroke="#01cbe1" stroke-linecap="round"></line><line x1="494.4229958506744" x2="488.7670941182755" y1="-52.721616022339504" y2="-47.065714289940615" stroke-width="5" stroke="#01cbe1" stroke-linecap="round"></line><line x1="750.4229958506744" x2="744.7670941182755" y1="-52.721616022339504" y2="-47.065714289940615" stroke-width="5" stroke="#01cbe1" stroke-linecap="round"></line><line x1="238.4229958506744" x2="232.7670941182755" y1="203.2783839776605" y2="208.93428571005938" stroke-width="5" stroke="#01cbe1" stroke-linecap="round"></line><line x1="494.4229958506744" x2="488.7670941182755" y1="203.2783839776605" y2="208.93428571005938" stroke-width="5" stroke="#01cbe1" stroke-linecap="round"></line><line x1="750.4229958506744" x2="744.7670941182755" y1="203.2783839776605" y2="208.93428571005938" stroke-width="5" stroke="#01cbe1" stroke-linecap="round"></line><line x1="40.315676964365494" x2="34.94073495923725" y1="202.52065073227428" y2="207.89559273740255" stroke-width="5" stroke="#a9f0f9" stroke-linecap="round"></line><line x1="40.315676964365494" x2="34.94073495923725" y1="-309.47934926772575" y2="-304.1044072625974" stroke-width="5" stroke="#a9f0f9" stroke-linecap="round"></line><line x1="296.3156769643655" x2="290.94073495923726" y1="-309.47934926772575" y2="-304.1044072625974" stroke-width="5" stroke="#a9f0f9" stroke-linecap="round"></line><line x1="552.3156769643655" x2="546.9407349592373" y1="-309.47934926772575" y2="-304.1044072625974" stroke-width="5" stroke="#a9f0f9" stroke-linecap="round"></line><line x1="40.315676964365494" x2="34.94073495923725" y1="-53.47934926772572" y2="-48.10440726259745" stroke-width="5" stroke="#a9f0f9" stroke-linecap="round"></line><line x1="296.3156769643655" x2="290.94073495923726" y1="-53.47934926772572" y2="-48.10440726259745" stroke-width="5" stroke="#a9f0f9" stroke-linecap="round"></line><line x1="552.3156769643655" x2="546.9407349592373" y1="-53.47934926772572" y2="-48.10440726259745" stroke-width="5" stroke="#a9f0f9" stroke-linecap="round"></line><line x1="40.315676964365494" x2="34.94073495923725" y1="202.52065073227428" y2="207.89559273740255" stroke-width="5" stroke="#a9f0f9" stroke-linecap="round"></line><line x1="296.3156769643655" x2="290.94073495923726" y1="202.52065073227428" y2="207.89559273740255" stroke-width="5" stroke="#a9f0f9" stroke-linecap="round"></line><line x1="552.3156769643655" x2="546.9407349592373" y1="202.52065073227428" y2="207.89559273740255" stroke-width="5" stroke="#a9f0f9" stroke-linecap="round"></line><line x1="28.452717707986277" x2="25.055344556612898" y1="63.678080086171" y2="67.07545323754438" stroke-width="5" stroke="#01cbe1" stroke-linecap="round"></line><line x1="28.452717707986277" x2="25.055344556612898" y1="-448.321919913829" y2="-444.92454676245563" stroke-width="5" stroke="#01cbe1" stroke-linecap="round"></line><line x1="284.45271770798627" x2="281.0553445566129" y1="-448.321919913829" y2="-444.92454676245563" stroke-width="5" stroke="#01cbe1" stroke-linecap="round"></line><line x1="540.4527177079863" x2="537.0553445566129" y1="-448.321919913829" y2="-444.92454676245563" stroke-width="5" stroke="#01cbe1" stroke-linecap="round"></line><line x1="28.452717707986277" x2="25.055344556612898" y1="-192.321919913829" y2="-188.92454676245563" stroke-width="5" stroke="#01cbe1" stroke-linecap="round"></line><line x1="284.45271770798627" x2="281.0553445566129" y1="-192.321919913829" y2="-188.92454676245563" stroke-width="5" stroke="#01cbe1" stroke-linecap="round"></line><line x1="540.4527177079863" x2="537.0553445566129" y1="-192.321919913829" y2="-188.92454676245563" stroke-width="5" stroke="#01cbe1" stroke-linecap="round"></line><line x1="28.452717707986277" x2="25.055344556612898" y1="63.678080086171" y2="67.07545323754438" stroke-width="5" stroke="#01cbe1" stroke-linecap="round"></line><line x1="284.45271770798627" x2="281.0553445566129" y1="63.678080086171" y2="67.07545323754438" stroke-width="5" stroke="#01cbe1" stroke-linecap="round"></line><line x1="540.4527177079863" x2="537.0553445566129" y1="63.678080086171" y2="67.07545323754438" stroke-width="5" stroke="#01cbe1" stroke-linecap="round"></line><line x1="22.2477107377573" x2="17.308457712375915" y1="180.24771359261223" y2="185.18696661799362" stroke-width="5" stroke="#01cbe1" stroke-linecap="round"></line><line x1="22.2477107377573" x2="17.308457712375915" y1="-331.75228640738777" y2="-326.8130333820064" stroke-width="5" stroke="#01cbe1" stroke-linecap="round"></line><line x1="278.2477107377573" x2="273.3084577123759" y1="-331.75228640738777" y2="-326.8130333820064" stroke-width="5" stroke="#01cbe1" stroke-linecap="round"></line><line x1="534.2477107377573" x2="529.3084577123759" y1="-331.75228640738777" y2="-326.8130333820064" stroke-width="5" stroke="#01cbe1" stroke-linecap="round"></line><line x1="22.2477107377573" x2="17.308457712375915" y1="-75.75228640738777" y2="-70.81303338200638" stroke-width="5" stroke="#01cbe1" stroke-linecap="round"></line><line x1="278.2477107377573" x2="273.3084577123759" y1="-75.75228640738777" y2="-70.81303338200638" stroke-width="5" stroke="#01cbe1" stroke-linecap="round"></line><line x1="534.2477107377573" x2="529.3084577123759" y1="-75.75228640738777" y2="-70.81303338200638" stroke-width="5" stroke="#01cbe1" stroke-linecap="round"></line><line x1="22.2477107377573" x2="17.308457712375915" y1="180.24771359261223" y2="185.18696661799362" stroke-width="5" stroke="#01cbe1" stroke-linecap="round"></line><line x1="278.2477107377573" x2="273.3084577123759" y1="180.24771359261223" y2="185.18696661799362" stroke-width="5" stroke="#01cbe1" stroke-linecap="round"></line><line x1="534.2477107377573" x2="529.3084577123759" y1="180.24771359261223" y2="185.18696661799362" stroke-width="5" stroke="#01cbe1" stroke-linecap="round"></line><line x1="34.56905370306802" x2="29.813679478778656" y1="184.68835028053851" y2="189.44372450482788" stroke-width="5" stroke="#01cbe1" stroke-linecap="round"></line><line x1="34.56905370306802" x2="29.813679478778656" y1="-327.31164971946146" y2="-322.55627549517214" stroke-width="5" stroke="#01cbe1" stroke-linecap="round"></line><line x1="290.569053703068" x2="285.8136794787787" y1="-327.31164971946146" y2="-322.55627549517214" stroke-width="5" stroke="#01cbe1" stroke-linecap="round"></line><line x1="546.569053703068" x2="541.8136794787787" y1="-327.31164971946146" y2="-322.55627549517214" stroke-width="5" stroke="#01cbe1" stroke-linecap="round"></line><line x1="34.56905370306802" x2="29.813679478778656" y1="-71.31164971946149" y2="-66.55627549517212" stroke-width="5" stroke="#01cbe1" stroke-linecap="round"></line><line x1="290.569053703068" x2="285.8136794787787" y1="-71.31164971946149" y2="-66.55627549517212" stroke-width="5" stroke="#01cbe1" stroke-linecap="round"></line><line x1="546.569053703068" x2="541.8136794787787" y1="-71.31164971946149" y2="-66.55627549517212" stroke-width="5" stroke="#01cbe1" stroke-linecap="round"></line><line x1="34.56905370306802" x2="29.813679478778656" y1="184.68835028053851" y2="189.44372450482788" stroke-width="5" stroke="#01cbe1" stroke-linecap="round"></line><line x1="290.569053703068" x2="285.8136794787787" y1="184.68835028053851" y2="189.44372450482788" stroke-width="5" stroke="#01cbe1" stroke-linecap="round"></line><line x1="546.569053703068" x2="541.8136794787787" y1="184.68835028053851" y2="189.44372450482788" stroke-width="5" stroke="#01cbe1" stroke-linecap="round"></line><line x1="175.57949898415262" x2="171.76399919378883" y1="32.42388998558194" y2="36.239389775945696" stroke-width="5" stroke="#01cbe1" stroke-linecap="round"></line><line x1="175.57949898415262" x2="171.76399919378883" y1="-479.5761100144181" y2="-475.7606102240543" stroke-width="5" stroke="#01cbe1" stroke-linecap="round"></line><line x1="431.5794989841526" x2="427.76399919378883" y1="-479.5761100144181" y2="-475.7606102240543" stroke-width="5" stroke="#01cbe1" stroke-linecap="round"></line><line x1="687.5794989841527" x2="683.7639991937888" y1="-479.5761100144181" y2="-475.7606102240543" stroke-width="5" stroke="#01cbe1" stroke-linecap="round"></line><line x1="175.57949898415262" x2="171.76399919378883" y1="-223.57611001441808" y2="-219.7606102240543" stroke-width="5" stroke="#01cbe1" stroke-linecap="round"></line><line x1="431.5794989841526" x2="427.76399919378883" y1="-223.57611001441808" y2="-219.7606102240543" stroke-width="5" stroke="#01cbe1" stroke-linecap="round"></line><line x1="687.5794989841527" x2="683.7639991937888" y1="-223.57611001441808" y2="-219.7606102240543" stroke-width="5" stroke="#01cbe1" stroke-linecap="round"></line><line x1="175.57949898415262" x2="171.76399919378883" y1="32.42388998558194" y2="36.239389775945696" stroke-width="5" stroke="#01cbe1" stroke-linecap="round"></line><line x1="431.5794989841526" x2="427.76399919378883" y1="32.42388998558194" y2="36.239389775945696" stroke-width="5" stroke="#01cbe1" stroke-linecap="round"></line><line x1="687.5794989841527" x2="683.7639991937888" y1="32.42388998558194" y2="36.239389775945696" stroke-width="5" stroke="#01cbe1" stroke-linecap="round"></line><line x1="144.01487864292926" x2="137.3824000937318" y1="222.41747957904283" y2="229.0499581282403" stroke-width="5" stroke="#01cbe1" stroke-linecap="round"></line><line x1="144.01487864292926" x2="137.3824000937318" y1="-289.58252042095717" y2="-282.9500418717597" stroke-width="5" stroke="#01cbe1" stroke-linecap="round"></line><line x1="400.01487864292926" x2="393.3824000937318" y1="-289.58252042095717" y2="-282.9500418717597" stroke-width="5" stroke="#01cbe1" stroke-linecap="round"></line><line x1="656.0148786429293" x2="649.3824000937318" y1="-289.58252042095717" y2="-282.9500418717597" stroke-width="5" stroke="#01cbe1" stroke-linecap="round"></line><line x1="144.01487864292926" x2="137.3824000937318" y1="-33.58252042095717" y2="-26.95004187175971" stroke-width="5" stroke="#01cbe1" stroke-linecap="round"></line><line x1="400.01487864292926" x2="393.3824000937318" y1="-33.58252042095717" y2="-26.95004187175971" stroke-width="5" stroke="#01cbe1" stroke-linecap="round"></line><line x1="656.0148786429293" x2="649.3824000937318" y1="-33.58252042095717" y2="-26.95004187175971" stroke-width="5" stroke="#01cbe1" stroke-linecap="round"></line><line x1="144.01487864292926" x2="137.3824000937318" y1="222.41747957904283" y2="229.0499581282403" stroke-width="5" stroke="#01cbe1" stroke-linecap="round"></line><line x1="400.01487864292926" x2="393.3824000937318" y1="222.41747957904283" y2="229.0499581282403" stroke-width="5" stroke="#01cbe1" stroke-linecap="round"></line><line x1="656.0148786429293" x2="649.3824000937318" y1="222.41747957904283" y2="229.0499581282403" stroke-width="5" stroke="#01cbe1" stroke-linecap="round"></line><line x1="40.00581472037836" x2="35.8645517223973" y1="163.45286920765793" y2="167.594132205639" stroke-width="5" stroke="#01cbe1" stroke-linecap="round"></line><line x1="40.00581472037836" x2="35.8645517223973" y1="-348.54713079234205" y2="-344.40586779436103" stroke-width="5" stroke="#01cbe1" stroke-linecap="round"></line><line x1="296.00581472037834" x2="291.8645517223973" y1="-348.54713079234205" y2="-344.40586779436103" stroke-width="5" stroke="#01cbe1" stroke-linecap="round"></line><line x1="552.0058147203783" x2="547.8645517223973" y1="-348.54713079234205" y2="-344.40586779436103" stroke-width="5" stroke="#01cbe1" stroke-linecap="round"></line><line x1="40.00581472037836" x2="35.8645517223973" y1="-92.54713079234207" y2="-88.405867794361" stroke-width="5" stroke="#01cbe1" stroke-linecap="round"></line><line x1="296.00581472037834" x2="291.8645517223973" y1="-92.54713079234207" y2="-88.405867794361" stroke-width="5" stroke="#01cbe1" stroke-linecap="round"></line><line x1="552.0058147203783" x2="547.8645517223973" y1="-92.54713079234207" y2="-88.405867794361" stroke-width="5" stroke="#01cbe1" stroke-linecap="round"></line><line x1="40.00581472037836" x2="35.8645517223973" y1="163.45286920765793" y2="167.594132205639" stroke-width="5" stroke="#01cbe1" stroke-linecap="round"></line><line x1="296.00581472037834" x2="291.8645517223973" y1="163.45286920765793" y2="167.594132205639" stroke-width="5" stroke="#01cbe1" stroke-linecap="round"></line><line x1="552.0058147203783" x2="547.8645517223973" y1="163.45286920765793" y2="167.594132205639" stroke-width="5" stroke="#01cbe1" stroke-linecap="round"></line><line x1="20.816737226358185" x2="18.329522244624656" y1="237.92326592949465" y2="240.41048091122818" stroke-width="5" stroke="#01cbe1" stroke-linecap="round"></line><line x1="20.816737226358185" x2="18.329522244624656" y1="-274.0767340705054" y2="-271.5895190887718" stroke-width="5" stroke="#01cbe1" stroke-linecap="round"></line><line x1="276.8167372263582" x2="274.3295222446246" y1="-274.0767340705054" y2="-271.5895190887718" stroke-width="5" stroke="#01cbe1" stroke-linecap="round"></line><line x1="532.8167372263582" x2="530.3295222446246" y1="-274.0767340705054" y2="-271.5895190887718" stroke-width="5" stroke="#01cbe1" stroke-linecap="round"></line><line x1="20.816737226358185" x2="18.329522244624656" y1="-18.076734070505353" y2="-15.589519088771823" stroke-width="5" stroke="#01cbe1" stroke-linecap="round"></line><line x1="276.8167372263582" x2="274.3295222446246" y1="-18.076734070505353" y2="-15.589519088771823" stroke-width="5" stroke="#01cbe1" stroke-linecap="round"></line><line x1="532.8167372263582" x2="530.3295222446246" y1="-18.076734070505353" y2="-15.589519088771823" stroke-width="5" stroke="#01cbe1" stroke-linecap="round"></line><line x1="20.816737226358185" x2="18.329522244624656" y1="237.92326592949465" y2="240.41048091122818" stroke-width="5" stroke="#01cbe1" stroke-linecap="round"></line><line x1="276.8167372263582" x2="274.3295222446246" y1="237.92326592949465" y2="240.41048091122818" stroke-width="5" stroke="#01cbe1" stroke-linecap="round"></line><line x1="532.8167372263582" x2="530.3295222446246" y1="237.92326592949465" y2="240.41048091122818" stroke-width="5" stroke="#01cbe1" stroke-linecap="round"></line><line x1="238.65842181495162" x2="232.40789337373343" y1="175.48586545587762" y2="181.7363938970958" stroke-width="5" stroke="#01cbe1" stroke-linecap="round"></line><line x1="238.65842181495162" x2="232.40789337373343" y1="-336.5141345441224" y2="-330.2636061029042" stroke-width="5" stroke="#01cbe1" stroke-linecap="round"></line><line x1="494.6584218149516" x2="488.40789337373343" y1="-336.5141345441224" y2="-330.2636061029042" stroke-width="5" stroke="#01cbe1" stroke-linecap="round"></line><line x1="750.6584218149517" x2="744.4078933737335" y1="-336.5141345441224" y2="-330.2636061029042" stroke-width="5" stroke="#01cbe1" stroke-linecap="round"></line><line x1="238.65842181495162" x2="232.40789337373343" y1="-80.51413454412238" y2="-74.26360610290419" stroke-width="5" stroke="#01cbe1" stroke-linecap="round"></line><line x1="494.6584218149516" x2="488.40789337373343" y1="-80.51413454412238" y2="-74.26360610290419" stroke-width="5" stroke="#01cbe1" stroke-linecap="round"></line><line x1="750.6584218149517" x2="744.4078933737335" y1="-80.51413454412238" y2="-74.26360610290419" stroke-width="5" stroke="#01cbe1" stroke-linecap="round"></line><line x1="238.65842181495162" x2="232.40789337373343" y1="175.48586545587762" y2="181.7363938970958" stroke-width="5" stroke="#01cbe1" stroke-linecap="round"></line><line x1="494.6584218149516" x2="488.40789337373343" y1="175.48586545587762" y2="181.7363938970958" stroke-width="5" stroke="#01cbe1" stroke-linecap="round"></line><line x1="750.6584218149517" x2="744.4078933737335" y1="175.48586545587762" y2="181.7363938970958" stroke-width="5" stroke="#01cbe1" stroke-linecap="round"></line>
  <animateTransform attributeName="transform" type="translate" values="0 0;-256 256" keyTimes="0;1" repeatCount="indefinite" dur="5s"></animateTransform>
</g><g transform="translate(-122.879 122.879)">
  <line x1="239.21213170287598" x2="236.8752999867766" y1="136.91103795227934" y2="139.2478696683787" stroke-width="5" stroke="#01cbe1" stroke-linecap="round"></line><line x1="239.21213170287598" x2="236.8752999867766" y1="-375.08896204772066" y2="-372.7521303316213" stroke-width="5" stroke="#01cbe1" stroke-linecap="round"></line><line x1="495.212131702876" x2="492.8752999867766" y1="-375.08896204772066" y2="-372.7521303316213" stroke-width="5" stroke="#01cbe1" stroke-linecap="round"></line><line x1="751.2121317028759" x2="748.8752999867766" y1="-375.08896204772066" y2="-372.7521303316213" stroke-width="5" stroke="#01cbe1" stroke-linecap="round"></line><line x1="239.21213170287598" x2="236.8752999867766" y1="-119.08896204772066" y2="-116.75213033162129" stroke-width="5" stroke="#01cbe1" stroke-linecap="round"></line><line x1="495.212131702876" x2="492.8752999867766" y1="-119.08896204772066" y2="-116.75213033162129" stroke-width="5" stroke="#01cbe1" stroke-linecap="round"></line><line x1="751.2121317028759" x2="748.8752999867766" y1="-119.08896204772066" y2="-116.75213033162129" stroke-width="5" stroke="#01cbe1" stroke-linecap="round"></line><line x1="239.21213170287598" x2="236.8752999867766" y1="136.91103795227934" y2="139.2478696683787" stroke-width="5" stroke="#01cbe1" stroke-linecap="round"></line><line x1="495.212131702876" x2="492.8752999867766" y1="136.91103795227934" y2="139.2478696683787" stroke-width="5" stroke="#01cbe1" stroke-linecap="round"></line><line x1="751.2121317028759" x2="748.8752999867766" y1="136.91103795227934" y2="139.2478696683787" stroke-width="5" stroke="#01cbe1" stroke-linecap="round"></line><line x1="162.67039245078328" x2="158.4900975704692" y1="135.14620285329525" y2="139.32649773360933" stroke-width="5" stroke="#38e0f5" stroke-linecap="round"></line><line x1="162.67039245078328" x2="158.4900975704692" y1="-376.8537971467048" y2="-372.67350226639064" stroke-width="5" stroke="#38e0f5" stroke-linecap="round"></line><line x1="418.6703924507833" x2="414.4900975704692" y1="-376.8537971467048" y2="-372.67350226639064" stroke-width="5" stroke="#38e0f5" stroke-linecap="round"></line><line x1="674.6703924507833" x2="670.4900975704692" y1="-376.8537971467048" y2="-372.67350226639064" stroke-width="5" stroke="#38e0f5" stroke-linecap="round"></line><line x1="162.67039245078328" x2="158.4900975704692" y1="-120.85379714670475" y2="-116.67350226639067" stroke-width="5" stroke="#38e0f5" stroke-linecap="round"></line><line x1="418.6703924507833" x2="414.4900975704692" y1="-120.85379714670475" y2="-116.67350226639067" stroke-width="5" stroke="#38e0f5" stroke-linecap="round"></line><line x1="674.6703924507833" x2="670.4900975704692" y1="-120.85379714670475" y2="-116.67350226639067" stroke-width="5" stroke="#38e0f5" stroke-linecap="round"></line><line x1="162.67039245078328" x2="158.4900975704692" y1="135.14620285329525" y2="139.32649773360933" stroke-width="5" stroke="#38e0f5" stroke-linecap="round"></line><line x1="418.6703924507833" x2="414.4900975704692" y1="135.14620285329525" y2="139.32649773360933" stroke-width="5" stroke="#38e0f5" stroke-linecap="round"></line><line x1="674.6703924507833" x2="670.4900975704692" y1="135.14620285329525" y2="139.32649773360933" stroke-width="5" stroke="#38e0f5" stroke-linecap="round"></line><line x1="202.26373720100543" x2="198.8707153646822" y1="62.915921636507555" y2="66.30894347283078" stroke-width="5" stroke="#38e0f5" stroke-linecap="round"></line><line x1="202.26373720100543" x2="198.8707153646822" y1="-449.08407836349244" y2="-445.6910565271692" stroke-width="5" stroke="#38e0f5" stroke-linecap="round"></line><line x1="458.2637372010054" x2="454.8707153646822" y1="-449.08407836349244" y2="-445.6910565271692" stroke-width="5" stroke="#38e0f5" stroke-linecap="round"></line><line x1="714.2637372010054" x2="710.8707153646822" y1="-449.08407836349244" y2="-445.6910565271692" stroke-width="5" stroke="#38e0f5" stroke-linecap="round"></line><line x1="202.26373720100543" x2="198.8707153646822" y1="-193.08407836349244" y2="-189.69105652716922" stroke-width="5" stroke="#38e0f5" stroke-linecap="round"></line><line x1="458.2637372010054" x2="454.8707153646822" y1="-193.08407836349244" y2="-189.69105652716922" stroke-width="5" stroke="#38e0f5" stroke-linecap="round"></line><line x1="714.2637372010054" x2="710.8707153646822" y1="-193.08407836349244" y2="-189.69105652716922" stroke-width="5" stroke="#38e0f5" stroke-linecap="round"></line><line x1="202.26373720100543" x2="198.8707153646822" y1="62.915921636507555" y2="66.30894347283078" stroke-width="5" stroke="#38e0f5" stroke-linecap="round"></line><line x1="458.2637372010054" x2="454.8707153646822" y1="62.915921636507555" y2="66.30894347283078" stroke-width="5" stroke="#38e0f5" stroke-linecap="round"></line><line x1="714.2637372010054" x2="710.8707153646822" y1="62.915921636507555" y2="66.30894347283078" stroke-width="5" stroke="#38e0f5" stroke-linecap="round"></line><line x1="145.26677508336095" x2="139.31534519969668" y1="47.37970919406823" y2="53.3311390777325" stroke-width="5" stroke="#38e0f5" stroke-linecap="round"></line><line x1="145.26677508336095" x2="139.31534519969668" y1="-464.62029080593175" y2="-458.6688609222675" stroke-width="5" stroke="#38e0f5" stroke-linecap="round"></line><line x1="401.2667750833609" x2="395.3153451996967" y1="-464.62029080593175" y2="-458.6688609222675" stroke-width="5" stroke="#38e0f5" stroke-linecap="round"></line><line x1="657.2667750833609" x2="651.3153451996967" y1="-464.62029080593175" y2="-458.6688609222675" stroke-width="5" stroke="#38e0f5" stroke-linecap="round"></line><line x1="145.26677508336095" x2="139.31534519969668" y1="-208.62029080593177" y2="-202.6688609222675" stroke-width="5" stroke="#38e0f5" stroke-linecap="round"></line><line x1="401.2667750833609" x2="395.3153451996967" y1="-208.62029080593177" y2="-202.6688609222675" stroke-width="5" stroke="#38e0f5" stroke-linecap="round"></line><line x1="657.2667750833609" x2="651.3153451996967" y1="-208.62029080593177" y2="-202.6688609222675" stroke-width="5" stroke="#38e0f5" stroke-linecap="round"></line><line x1="145.26677508336095" x2="139.31534519969668" y1="47.37970919406823" y2="53.3311390777325" stroke-width="5" stroke="#38e0f5" stroke-linecap="round"></line><line x1="401.2667750833609" x2="395.3153451996967" y1="47.37970919406823" y2="53.3311390777325" stroke-width="5" stroke="#38e0f5" stroke-linecap="round"></line><line x1="657.2667750833609" x2="651.3153451996967" y1="47.37970919406823" y2="53.3311390777325" stroke-width="5" stroke="#38e0f5" stroke-linecap="round"></line><line x1="257.2877343769961" x2="253.36477674282514" y1="170.8400594221137" y2="174.7630170562847" stroke-width="5" stroke="#38e0f5" stroke-linecap="round"></line><line x1="257.2877343769961" x2="253.36477674282514" y1="-341.1599405778863" y2="-337.2369829437153" stroke-width="5" stroke="#38e0f5" stroke-linecap="round"></line><line x1="513.2877343769961" x2="509.36477674282514" y1="-341.1599405778863" y2="-337.2369829437153" stroke-width="5" stroke="#38e0f5" stroke-linecap="round"></line><line x1="769.2877343769961" x2="765.3647767428251" y1="-341.1599405778863" y2="-337.2369829437153" stroke-width="5" stroke="#38e0f5" stroke-linecap="round"></line><line x1="257.2877343769961" x2="253.36477674282514" y1="-85.15994057788629" y2="-81.2369829437153" stroke-width="5" stroke="#38e0f5" stroke-linecap="round"></line><line x1="513.2877343769961" x2="509.36477674282514" y1="-85.15994057788629" y2="-81.2369829437153" stroke-width="5" stroke="#38e0f5" stroke-linecap="round"></line><line x1="769.2877343769961" x2="765.3647767428251" y1="-85.15994057788629" y2="-81.2369829437153" stroke-width="5" stroke="#38e0f5" stroke-linecap="round"></line><line x1="257.2877343769961" x2="253.36477674282514" y1="170.8400594221137" y2="174.7630170562847" stroke-width="5" stroke="#38e0f5" stroke-linecap="round"></line><line x1="513.2877343769961" x2="509.36477674282514" y1="170.8400594221137" y2="174.7630170562847" stroke-width="5" stroke="#38e0f5" stroke-linecap="round"></line><line x1="769.2877343769961" x2="765.3647767428251" y1="170.8400594221137" y2="174.7630170562847" stroke-width="5" stroke="#38e0f5" stroke-linecap="round"></line><line x1="1.2877343769961271" x2="-2.6352232571748573" y1="170.8400594221137" y2="174.7630170562847" stroke-width="5" stroke="#38e0f5" stroke-linecap="round"></line><line x1="60.4398512667256" x2="54.91094450196779" y1="36.84920425613707" y2="42.37811102089488" stroke-width="5" stroke="#38e0f5" stroke-linecap="round"></line><line x1="60.4398512667256" x2="54.91094450196779" y1="-475.15079574386294" y2="-469.6218889791051" stroke-width="5" stroke="#38e0f5" stroke-linecap="round"></line><line x1="316.4398512667256" x2="310.9109445019678" y1="-475.15079574386294" y2="-469.6218889791051" stroke-width="5" stroke="#38e0f5" stroke-linecap="round"></line><line x1="572.4398512667256" x2="566.9109445019678" y1="-475.15079574386294" y2="-469.6218889791051" stroke-width="5" stroke="#38e0f5" stroke-linecap="round"></line><line x1="60.4398512667256" x2="54.91094450196779" y1="-219.15079574386294" y2="-213.6218889791051" stroke-width="5" stroke="#38e0f5" stroke-linecap="round"></line><line x1="316.4398512667256" x2="310.9109445019678" y1="-219.15079574386294" y2="-213.6218889791051" stroke-width="5" stroke="#38e0f5" stroke-linecap="round"></line><line x1="572.4398512667256" x2="566.9109445019678" y1="-219.15079574386294" y2="-213.6218889791051" stroke-width="5" stroke="#38e0f5" stroke-linecap="round"></line><line x1="60.4398512667256" x2="54.91094450196779" y1="36.84920425613707" y2="42.37811102089488" stroke-width="5" stroke="#38e0f5" stroke-linecap="round"></line><line x1="316.4398512667256" x2="310.9109445019678" y1="36.84920425613707" y2="42.37811102089488" stroke-width="5" stroke="#38e0f5" stroke-linecap="round"></line><line x1="572.4398512667256" x2="566.9109445019678" y1="36.84920425613707" y2="42.37811102089488" stroke-width="5" stroke="#38e0f5" stroke-linecap="round"></line><line x1="146.5286641225829" x2="140.5608839867942" y1="84.12487223058164" y2="90.09265236637034" stroke-width="5" stroke="#38e0f5" stroke-linecap="round"></line><line x1="146.5286641225829" x2="140.5608839867942" y1="-427.8751277694183" y2="-421.9073476336297" stroke-width="5" stroke="#38e0f5" stroke-linecap="round"></line><line x1="402.5286641225829" x2="396.56088398679424" y1="-427.8751277694183" y2="-421.9073476336297" stroke-width="5" stroke="#38e0f5" stroke-linecap="round"></line><line x1="658.5286641225829" x2="652.5608839867942" y1="-427.8751277694183" y2="-421.9073476336297" stroke-width="5" stroke="#38e0f5" stroke-linecap="round"></line><line x1="146.5286641225829" x2="140.5608839867942" y1="-171.87512776941836" y2="-165.90734763362966" stroke-width="5" stroke="#38e0f5" stroke-linecap="round"></line><line x1="402.5286641225829" x2="396.56088398679424" y1="-171.87512776941836" y2="-165.90734763362966" stroke-width="5" stroke="#38e0f5" stroke-linecap="round"></line><line x1="658.5286641225829" x2="652.5608839867942" y1="-171.87512776941836" y2="-165.90734763362966" stroke-width="5" stroke="#38e0f5" stroke-linecap="round"></line><line x1="146.5286641225829" x2="140.5608839867942" y1="84.12487223058164" y2="90.09265236637034" stroke-width="5" stroke="#38e0f5" stroke-linecap="round"></line><line x1="402.5286641225829" x2="396.56088398679424" y1="84.12487223058164" y2="90.09265236637034" stroke-width="5" stroke="#38e0f5" stroke-linecap="round"></line><line x1="658.5286641225829" x2="652.5608839867942" y1="84.12487223058164" y2="90.09265236637034" stroke-width="5" stroke="#38e0f5" stroke-linecap="round"></line><line x1="67.02494988491175" x2="63.22781462926967" y1="47.42891120540075" y2="51.22604646104283" stroke-width="5" stroke="#38e0f5" stroke-linecap="round"></line><line x1="67.02494988491175" x2="63.22781462926967" y1="-464.57108879459923" y2="-460.7739535389572" stroke-width="5" stroke="#38e0f5" stroke-linecap="round"></line><line x1="323.02494988491173" x2="319.2278146292697" y1="-464.57108879459923" y2="-460.7739535389572" stroke-width="5" stroke="#38e0f5" stroke-linecap="round"></line><line x1="579.0249498849117" x2="575.2278146292697" y1="-464.57108879459923" y2="-460.7739535389572" stroke-width="5" stroke="#38e0f5" stroke-linecap="round"></line><line x1="67.02494988491175" x2="63.22781462926967" y1="-208.57108879459923" y2="-204.7739535389572" stroke-width="5" stroke="#38e0f5" stroke-linecap="round"></line><line x1="323.02494988491173" x2="319.2278146292697" y1="-208.57108879459923" y2="-204.7739535389572" stroke-width="5" stroke="#38e0f5" stroke-linecap="round"></line><line x1="579.0249498849117" x2="575.2278146292697" y1="-208.57108879459923" y2="-204.7739535389572" stroke-width="5" stroke="#38e0f5" stroke-linecap="round"></line><line x1="67.02494988491175" x2="63.22781462926967" y1="47.42891120540075" y2="51.22604646104283" stroke-width="5" stroke="#38e0f5" stroke-linecap="round"></line><line x1="323.02494988491173" x2="319.2278146292697" y1="47.42891120540075" y2="51.22604646104283" stroke-width="5" stroke="#38e0f5" stroke-linecap="round"></line><line x1="579.0249498849117" x2="575.2278146292697" y1="47.42891120540075" y2="51.22604646104283" stroke-width="5" stroke="#38e0f5" stroke-linecap="round"></line><line x1="235.11702416216275" x2="231.67783022065709" y1="95.53517121670454" y2="98.97436515821023" stroke-width="5" stroke="#38e0f5" stroke-linecap="round"></line><line x1="235.11702416216275" x2="231.67783022065709" y1="-416.46482878329545" y2="-413.0256348417898" stroke-width="5" stroke="#38e0f5" stroke-linecap="round"></line><line x1="491.11702416216275" x2="487.6778302206571" y1="-416.46482878329545" y2="-413.0256348417898" stroke-width="5" stroke="#38e0f5" stroke-linecap="round"></line><line x1="747.1170241621628" x2="743.6778302206571" y1="-416.46482878329545" y2="-413.0256348417898" stroke-width="5" stroke="#38e0f5" stroke-linecap="round"></line><line x1="235.11702416216275" x2="231.67783022065709" y1="-160.46482878329545" y2="-157.02563484178978" stroke-width="5" stroke="#38e0f5" stroke-linecap="round"></line><line x1="491.11702416216275" x2="487.6778302206571" y1="-160.46482878329545" y2="-157.02563484178978" stroke-width="5" stroke="#38e0f5" stroke-linecap="round"></line><line x1="747.1170241621628" x2="743.6778302206571" y1="-160.46482878329545" y2="-157.02563484178978" stroke-width="5" stroke="#38e0f5" stroke-linecap="round"></line><line x1="235.11702416216275" x2="231.67783022065709" y1="95.53517121670454" y2="98.97436515821023" stroke-width="5" stroke="#38e0f5" stroke-linecap="round"></line><line x1="491.11702416216275" x2="487.6778302206571" y1="95.53517121670454" y2="98.97436515821023" stroke-width="5" stroke="#38e0f5" stroke-linecap="round"></line><line x1="747.1170241621628" x2="743.6778302206571" y1="95.53517121670454" y2="98.97436515821023" stroke-width="5" stroke="#38e0f5" stroke-linecap="round"></line><line x1="173.2439194786489" x2="166.9907562296721" y1="108.18994329264119" y2="114.44310654161798" stroke-width="5" stroke="#38e0f5" stroke-linecap="round"></line><line x1="173.2439194786489" x2="166.9907562296721" y1="-403.8100567073588" y2="-397.55689345838204" stroke-width="5" stroke="#38e0f5" stroke-linecap="round"></line><line x1="429.2439194786489" x2="422.9907562296721" y1="-403.8100567073588" y2="-397.55689345838204" stroke-width="5" stroke="#38e0f5" stroke-linecap="round"></line><line x1="685.2439194786489" x2="678.9907562296721" y1="-403.8100567073588" y2="-397.55689345838204" stroke-width="5" stroke="#38e0f5" stroke-linecap="round"></line><line x1="173.2439194786489" x2="166.9907562296721" y1="-147.8100567073588" y2="-141.55689345838204" stroke-width="5" stroke="#38e0f5" stroke-linecap="round"></line><line x1="429.2439194786489" x2="422.9907562296721" y1="-147.8100567073588" y2="-141.55689345838204" stroke-width="5" stroke="#38e0f5" stroke-linecap="round"></line><line x1="685.2439194786489" x2="678.9907562296721" y1="-147.8100567073588" y2="-141.55689345838204" stroke-width="5" stroke="#38e0f5" stroke-linecap="round"></line><line x1="173.2439194786489" x2="166.9907562296721" y1="108.18994329264119" y2="114.44310654161798" stroke-width="5" stroke="#38e0f5" stroke-linecap="round"></line><line x1="429.2439194786489" x2="422.9907562296721" y1="108.18994329264119" y2="114.44310654161798" stroke-width="5" stroke="#38e0f5" stroke-linecap="round"></line><line x1="685.2439194786489" x2="678.9907562296721" y1="108.18994329264119" y2="114.44310654161798" stroke-width="5" stroke="#38e0f5" stroke-linecap="round"></line><line x1="82.94131532596725" x2="78.47128142093993" y1="79.8547203634322" y2="84.32475426845951" stroke-width="5" stroke="#38e0f5" stroke-linecap="round"></line><line x1="82.94131532596725" x2="78.47128142093993" y1="-432.1452796365678" y2="-427.6752457315405" stroke-width="5" stroke="#38e0f5" stroke-linecap="round"></line><line x1="338.94131532596725" x2="334.47128142093993" y1="-432.1452796365678" y2="-427.6752457315405" stroke-width="5" stroke="#38e0f5" stroke-linecap="round"></line><line x1="594.9413153259673" x2="590.4712814209399" y1="-432.1452796365678" y2="-427.6752457315405" stroke-width="5" stroke="#38e0f5" stroke-linecap="round"></line><line x1="82.94131532596725" x2="78.47128142093993" y1="-176.1452796365678" y2="-171.67524573154049" stroke-width="5" stroke="#38e0f5" stroke-linecap="round"></line><line x1="338.94131532596725" x2="334.47128142093993" y1="-176.1452796365678" y2="-171.67524573154049" stroke-width="5" stroke="#38e0f5" stroke-linecap="round"></line><line x1="594.9413153259673" x2="590.4712814209399" y1="-176.1452796365678" y2="-171.67524573154049" stroke-width="5" stroke="#38e0f5" stroke-linecap="round"></line><line x1="82.94131532596725" x2="78.47128142093993" y1="79.8547203634322" y2="84.32475426845951" stroke-width="5" stroke="#38e0f5" stroke-linecap="round"></line><line x1="338.94131532596725" x2="334.47128142093993" y1="79.8547203634322" y2="84.32475426845951" stroke-width="5" stroke="#38e0f5" stroke-linecap="round"></line><line x1="594.9413153259673" x2="590.4712814209399" y1="79.8547203634322" y2="84.32475426845951" stroke-width="5" stroke="#38e0f5" stroke-linecap="round"></line><line x1="48.768567330502485" x2="46.20963763665214" y1="41.11069934924081" y2="43.669629043091156" stroke-width="5" stroke="#38e0f5" stroke-linecap="round"></line><line x1="48.768567330502485" x2="46.20963763665214" y1="-470.8893006507592" y2="-468.33037095690884" stroke-width="5" stroke="#38e0f5" stroke-linecap="round"></line><line x1="304.7685673305025" x2="302.20963763665213" y1="-470.8893006507592" y2="-468.33037095690884" stroke-width="5" stroke="#38e0f5" stroke-linecap="round"></line><line x1="560.7685673305025" x2="558.2096376366521" y1="-470.8893006507592" y2="-468.33037095690884" stroke-width="5" stroke="#38e0f5" stroke-linecap="round"></line><line x1="48.768567330502485" x2="46.20963763665214" y1="-214.8893006507592" y2="-212.33037095690884" stroke-width="5" stroke="#38e0f5" stroke-linecap="round"></line><line x1="304.7685673305025" x2="302.20963763665213" y1="-214.8893006507592" y2="-212.33037095690884" stroke-width="5" stroke="#38e0f5" stroke-linecap="round"></line><line x1="560.7685673305025" x2="558.2096376366521" y1="-214.8893006507592" y2="-212.33037095690884" stroke-width="5" stroke="#38e0f5" stroke-linecap="round"></line><line x1="48.768567330502485" x2="46.20963763665214" y1="41.11069934924081" y2="43.669629043091156" stroke-width="5" stroke="#38e0f5" stroke-linecap="round"></line><line x1="304.7685673305025" x2="302.20963763665213" y1="41.11069934924081" y2="43.669629043091156" stroke-width="5" stroke="#38e0f5" stroke-linecap="round"></line><line x1="560.7685673305025" x2="558.2096376366521" y1="41.11069934924081" y2="43.669629043091156" stroke-width="5" stroke="#38e0f5" stroke-linecap="round"></line><line x1="26.32641229119468" x2="19.818880931665326" y1="206.35398804405293" y2="212.8615194035823" stroke-width="5" stroke="#38e0f5" stroke-linecap="round"></line><line x1="26.32641229119468" x2="19.818880931665326" y1="-305.6460119559471" y2="-299.1384805964177" stroke-width="5" stroke="#38e0f5" stroke-linecap="round"></line><line x1="282.3264122911947" x2="275.8188809316653" y1="-305.6460119559471" y2="-299.1384805964177" stroke-width="5" stroke="#38e0f5" stroke-linecap="round"></line><line x1="538.3264122911946" x2="531.8188809316654" y1="-305.6460119559471" y2="-299.1384805964177" stroke-width="5" stroke="#38e0f5" stroke-linecap="round"></line><line x1="26.32641229119468" x2="19.818880931665326" y1="-49.646011955947074" y2="-43.13848059641771" stroke-width="5" stroke="#38e0f5" stroke-linecap="round"></line><line x1="282.3264122911947" x2="275.8188809316653" y1="-49.646011955947074" y2="-43.13848059641771" stroke-width="5" stroke="#38e0f5" stroke-linecap="round"></line><line x1="538.3264122911946" x2="531.8188809316654" y1="-49.646011955947074" y2="-43.13848059641771" stroke-width="5" stroke="#38e0f5" stroke-linecap="round"></line><line x1="26.32641229119468" x2="19.818880931665326" y1="206.35398804405293" y2="212.8615194035823" stroke-width="5" stroke="#38e0f5" stroke-linecap="round"></line><line x1="282.3264122911947" x2="275.8188809316653" y1="206.35398804405293" y2="212.8615194035823" stroke-width="5" stroke="#38e0f5" stroke-linecap="round"></line><line x1="538.3264122911946" x2="531.8188809316654" y1="206.35398804405293" y2="212.8615194035823" stroke-width="5" stroke="#38e0f5" stroke-linecap="round"></line><line x1="72.82484995567317" x2="66.94492047120214" y1="52.18177889463955" y2="58.061708379110584" stroke-width="5" stroke="#38e0f5" stroke-linecap="round"></line><line x1="72.82484995567317" x2="66.94492047120214" y1="-459.81822110536046" y2="-453.9382916208894" stroke-width="5" stroke="#38e0f5" stroke-linecap="round"></line><line x1="328.8248499556732" x2="322.9449204712021" y1="-459.81822110536046" y2="-453.9382916208894" stroke-width="5" stroke="#38e0f5" stroke-linecap="round"></line><line x1="584.8248499556731" x2="578.9449204712022" y1="-459.81822110536046" y2="-453.9382916208894" stroke-width="5" stroke="#38e0f5" stroke-linecap="round"></line><line x1="72.82484995567317" x2="66.94492047120214" y1="-203.81822110536046" y2="-197.9382916208894" stroke-width="5" stroke="#38e0f5" stroke-linecap="round"></line><line x1="328.8248499556732" x2="322.9449204712021" y1="-203.81822110536046" y2="-197.9382916208894" stroke-width="5" stroke="#38e0f5" stroke-linecap="round"></line><line x1="584.8248499556731" x2="578.9449204712022" y1="-203.81822110536046" y2="-197.9382916208894" stroke-width="5" stroke="#38e0f5" stroke-linecap="round"></line><line x1="72.82484995567317" x2="66.94492047120214" y1="52.18177889463955" y2="58.061708379110584" stroke-width="5" stroke="#38e0f5" stroke-linecap="round"></line><line x1="328.8248499556732" x2="322.9449204712021" y1="52.18177889463955" y2="58.061708379110584" stroke-width="5" stroke="#38e0f5" stroke-linecap="round"></line><line x1="584.8248499556731" x2="578.9449204712022" y1="52.18177889463955" y2="58.061708379110584" stroke-width="5" stroke="#38e0f5" stroke-linecap="round"></line>
  <animateTransform attributeName="transform" type="translate" values="0 0;-256 256" keyTimes="0;1" repeatCount="indefinite" dur="2.5s"></animateTransform>
</g><g transform="translate(-56.3192 56.3192)">
  <line x1="206.16098287852932" x2="200.96411599886622" y1="227.5288994723858" y2="232.7257663520489" stroke-width="5" stroke="#a9f0f9" stroke-linecap="round"></line><line x1="206.16098287852932" x2="200.96411599886622" y1="-284.4711005276142" y2="-279.27423364795106" stroke-width="5" stroke="#a9f0f9" stroke-linecap="round"></line><line x1="462.16098287852935" x2="456.9641159988662" y1="-284.4711005276142" y2="-279.27423364795106" stroke-width="5" stroke="#a9f0f9" stroke-linecap="round"></line><line x1="718.1609828785294" x2="712.9641159988662" y1="-284.4711005276142" y2="-279.27423364795106" stroke-width="5" stroke="#a9f0f9" stroke-linecap="round"></line><line x1="206.16098287852932" x2="200.96411599886622" y1="-28.471100527614198" y2="-23.274233647951093" stroke-width="5" stroke="#a9f0f9" stroke-linecap="round"></line><line x1="462.16098287852935" x2="456.9641159988662" y1="-28.471100527614198" y2="-23.274233647951093" stroke-width="5" stroke="#a9f0f9" stroke-linecap="round"></line><line x1="718.1609828785294" x2="712.9641159988662" y1="-28.471100527614198" y2="-23.274233647951093" stroke-width="5" stroke="#a9f0f9" stroke-linecap="round"></line><line x1="206.16098287852932" x2="200.96411599886622" y1="227.5288994723858" y2="232.7257663520489" stroke-width="5" stroke="#a9f0f9" stroke-linecap="round"></line><line x1="462.16098287852935" x2="456.9641159988662" y1="227.5288994723858" y2="232.7257663520489" stroke-width="5" stroke="#a9f0f9" stroke-linecap="round"></line><line x1="718.1609828785294" x2="712.9641159988662" y1="227.5288994723858" y2="232.7257663520489" stroke-width="5" stroke="#a9f0f9" stroke-linecap="round"></line><line x1="93.27565289996797" x2="86.81591151624336" y1="189.99707334900626" y2="196.45681473273083" stroke-width="5" stroke="#a9f0f9" stroke-linecap="round"></line><line x1="93.27565289996797" x2="86.81591151624336" y1="-322.00292665099374" y2="-315.54318526726917" stroke-width="5" stroke="#a9f0f9" stroke-linecap="round"></line><line x1="349.27565289996795" x2="342.8159115162434" y1="-322.00292665099374" y2="-315.54318526726917" stroke-width="5" stroke="#a9f0f9" stroke-linecap="round"></line><line x1="605.275652899968" x2="598.8159115162433" y1="-322.00292665099374" y2="-315.54318526726917" stroke-width="5" stroke="#a9f0f9" stroke-linecap="round"></line><line x1="93.27565289996797" x2="86.81591151624336" y1="-66.00292665099374" y2="-59.543185267269166" stroke-width="5" stroke="#a9f0f9" stroke-linecap="round"></line><line x1="349.27565289996795" x2="342.8159115162434" y1="-66.00292665099374" y2="-59.543185267269166" stroke-width="5" stroke="#a9f0f9" stroke-linecap="round"></line><line x1="605.275652899968" x2="598.8159115162433" y1="-66.00292665099374" y2="-59.543185267269166" stroke-width="5" stroke="#a9f0f9" stroke-linecap="round"></line><line x1="93.27565289996797" x2="86.81591151624336" y1="189.99707334900626" y2="196.45681473273083" stroke-width="5" stroke="#a9f0f9" stroke-linecap="round"></line><line x1="349.27565289996795" x2="342.8159115162434" y1="189.99707334900626" y2="196.45681473273083" stroke-width="5" stroke="#a9f0f9" stroke-linecap="round"></line><line x1="605.275652899968" x2="598.8159115162433" y1="189.99707334900626" y2="196.45681473273083" stroke-width="5" stroke="#a9f0f9" stroke-linecap="round"></line><line x1="37.025525715628355" x2="30.053347153266778" y1="226.8085511024081" y2="233.7807296647697" stroke-width="5" stroke="#a9f0f9" stroke-linecap="round"></line><line x1="37.025525715628355" x2="30.053347153266778" y1="-285.1914488975919" y2="-278.2192703352303" stroke-width="5" stroke="#a9f0f9" stroke-linecap="round"></line><line x1="293.02552571562836" x2="286.05334715326677" y1="-285.1914488975919" y2="-278.2192703352303" stroke-width="5" stroke="#a9f0f9" stroke-linecap="round"></line><line x1="549.0255257156283" x2="542.0533471532668" y1="-285.1914488975919" y2="-278.2192703352303" stroke-width="5" stroke="#a9f0f9" stroke-linecap="round"></line><line x1="37.025525715628355" x2="30.053347153266778" y1="-29.191448897591897" y2="-22.219270335230306" stroke-width="5" stroke="#a9f0f9" stroke-linecap="round"></line><line x1="293.02552571562836" x2="286.05334715326677" y1="-29.191448897591897" y2="-22.219270335230306" stroke-width="5" stroke="#a9f0f9" stroke-linecap="round"></line><line x1="549.0255257156283" x2="542.0533471532668" y1="-29.191448897591897" y2="-22.219270335230306" stroke-width="5" stroke="#a9f0f9" stroke-linecap="round"></line><line x1="37.025525715628355" x2="30.053347153266778" y1="226.8085511024081" y2="233.7807296647697" stroke-width="5" stroke="#a9f0f9" stroke-linecap="round"></line><line x1="293.02552571562836" x2="286.05334715326677" y1="226.8085511024081" y2="233.7807296647697" stroke-width="5" stroke="#a9f0f9" stroke-linecap="round"></line><line x1="549.0255257156283" x2="542.0533471532668" y1="226.8085511024081" y2="233.7807296647697" stroke-width="5" stroke="#a9f0f9" stroke-linecap="round"></line><line x1="193.8381345992577" x2="187.98236750728952" y1="86.22045827042409" y2="92.07622536239224" stroke-width="5" stroke="#a9f0f9" stroke-linecap="round"></line><line x1="193.8381345992577" x2="187.98236750728952" y1="-425.7795417295759" y2="-419.9237746376078" stroke-width="5" stroke="#a9f0f9" stroke-linecap="round"></line><line x1="449.8381345992577" x2="443.9823675072895" y1="-425.7795417295759" y2="-419.9237746376078" stroke-width="5" stroke="#a9f0f9" stroke-linecap="round"></line><line x1="705.8381345992577" x2="699.9823675072895" y1="-425.7795417295759" y2="-419.9237746376078" stroke-width="5" stroke="#a9f0f9" stroke-linecap="round"></line><line x1="193.8381345992577" x2="187.98236750728952" y1="-169.7795417295759" y2="-163.92377463760778" stroke-width="5" stroke="#a9f0f9" stroke-linecap="round"></line><line x1="449.8381345992577" x2="443.9823675072895" y1="-169.7795417295759" y2="-163.92377463760778" stroke-width="5" stroke="#a9f0f9" stroke-linecap="round"></line><line x1="705.8381345992577" x2="699.9823675072895" y1="-169.7795417295759" y2="-163.92377463760778" stroke-width="5" stroke="#a9f0f9" stroke-linecap="round"></line><line x1="193.8381345992577" x2="187.98236750728952" y1="86.22045827042409" y2="92.07622536239224" stroke-width="5" stroke="#a9f0f9" stroke-linecap="round"></line><line x1="449.8381345992577" x2="443.9823675072895" y1="86.22045827042409" y2="92.07622536239224" stroke-width="5" stroke="#a9f0f9" stroke-linecap="round"></line><line x1="705.8381345992577" x2="699.9823675072895" y1="86.22045827042409" y2="92.07622536239224" stroke-width="5" stroke="#a9f0f9" stroke-linecap="round"></line><line x1="13.048020668365421" x2="9.543481530681465" y1="127.05422531635607" y2="130.55876445404002" stroke-width="5" stroke="#a9f0f9" stroke-linecap="round"></line><line x1="13.048020668365421" x2="9.543481530681465" y1="-384.94577468364395" y2="-381.44123554596" stroke-width="5" stroke="#a9f0f9" stroke-linecap="round"></line><line x1="269.04802066836544" x2="265.54348153068145" y1="-384.94577468364395" y2="-381.44123554596" stroke-width="5" stroke="#a9f0f9" stroke-linecap="round"></line><line x1="525.0480206683654" x2="521.5434815306814" y1="-384.94577468364395" y2="-381.44123554596" stroke-width="5" stroke="#a9f0f9" stroke-linecap="round"></line><line x1="13.048020668365421" x2="9.543481530681465" y1="-128.94577468364395" y2="-125.44123554595998" stroke-width="5" stroke="#a9f0f9" stroke-linecap="round"></line><line x1="269.04802066836544" x2="265.54348153068145" y1="-128.94577468364395" y2="-125.44123554595998" stroke-width="5" stroke="#a9f0f9" stroke-linecap="round"></line><line x1="525.0480206683654" x2="521.5434815306814" y1="-128.94577468364395" y2="-125.44123554595998" stroke-width="5" stroke="#a9f0f9" stroke-linecap="round"></line><line x1="13.048020668365421" x2="9.543481530681465" y1="127.05422531635607" y2="130.55876445404002" stroke-width="5" stroke="#a9f0f9" stroke-linecap="round"></line><line x1="269.04802066836544" x2="265.54348153068145" y1="127.05422531635607" y2="130.55876445404002" stroke-width="5" stroke="#a9f0f9" stroke-linecap="round"></line><line x1="525.0480206683654" x2="521.5434815306814" y1="127.05422531635607" y2="130.55876445404002" stroke-width="5" stroke="#a9f0f9" stroke-linecap="round"></line><line x1="60.91485102703298" x2="55.9573697636594" y1="244.13913785102534" y2="249.0966191143989" stroke-width="5" stroke="#a9f0f9" stroke-linecap="round"></line><line x1="60.91485102703298" x2="55.9573697636594" y1="-267.86086214897466" y2="-262.9033808856011" stroke-width="5" stroke="#a9f0f9" stroke-linecap="round"></line><line x1="316.91485102703297" x2="311.9573697636594" y1="-267.86086214897466" y2="-262.9033808856011" stroke-width="5" stroke="#a9f0f9" stroke-linecap="round"></line><line x1="572.914851027033" x2="567.9573697636594" y1="-267.86086214897466" y2="-262.9033808856011" stroke-width="5" stroke="#a9f0f9" stroke-linecap="round"></line><line x1="60.91485102703298" x2="55.9573697636594" y1="-11.860862148974661" y2="-6.903380885601109" stroke-width="5" stroke="#a9f0f9" stroke-linecap="round"></line><line x1="316.91485102703297" x2="311.9573697636594" y1="-11.860862148974661" y2="-6.903380885601109" stroke-width="5" stroke="#a9f0f9" stroke-linecap="round"></line><line x1="572.914851027033" x2="567.9573697636594" y1="-11.860862148974661" y2="-6.903380885601109" stroke-width="5" stroke="#a9f0f9" stroke-linecap="round"></line><line x1="60.91485102703298" x2="55.9573697636594" y1="244.13913785102534" y2="249.0966191143989" stroke-width="5" stroke="#a9f0f9" stroke-linecap="round"></line><line x1="316.91485102703297" x2="311.9573697636594" y1="244.13913785102534" y2="249.0966191143989" stroke-width="5" stroke="#a9f0f9" stroke-linecap="round"></line><line x1="572.914851027033" x2="567.9573697636594" y1="244.13913785102534" y2="249.0966191143989" stroke-width="5" stroke="#a9f0f9" stroke-linecap="round"></line><line x1="46.346165669634786" x2="42.80641510518234" y1="153.26342019336312" y2="156.80317075781556" stroke-width="5" stroke="#a9f0f9" stroke-linecap="round"></line><line x1="46.346165669634786" x2="42.80641510518234" y1="-358.7365798066369" y2="-355.19682924218444" stroke-width="5" stroke="#a9f0f9" stroke-linecap="round"></line><line x1="302.3461656696348" x2="298.80641510518234" y1="-358.7365798066369" y2="-355.19682924218444" stroke-width="5" stroke="#a9f0f9" stroke-linecap="round"></line><line x1="558.3461656696347" x2="554.8064151051824" y1="-358.7365798066369" y2="-355.19682924218444" stroke-width="5" stroke="#a9f0f9" stroke-linecap="round"></line><line x1="46.346165669634786" x2="42.80641510518234" y1="-102.73657980663688" y2="-99.19682924218444" stroke-width="5" stroke="#a9f0f9" stroke-linecap="round"></line><line x1="302.3461656696348" x2="298.80641510518234" y1="-102.73657980663688" y2="-99.19682924218444" stroke-width="5" stroke="#a9f0f9" stroke-linecap="round"></line><line x1="558.3461656696347" x2="554.8064151051824" y1="-102.73657980663688" y2="-99.19682924218444" stroke-width="5" stroke="#a9f0f9" stroke-linecap="round"></line><line x1="46.346165669634786" x2="42.80641510518234" y1="153.26342019336312" y2="156.80317075781556" stroke-width="5" stroke="#a9f0f9" stroke-linecap="round"></line><line x1="302.3461656696348" x2="298.80641510518234" y1="153.26342019336312" y2="156.80317075781556" stroke-width="5" stroke="#a9f0f9" stroke-linecap="round"></line><line x1="558.3461656696347" x2="554.8064151051824" y1="153.26342019336312" y2="156.80317075781556" stroke-width="5" stroke="#a9f0f9" stroke-linecap="round"></line><line x1="223.30411624537393" x2="217.41256659196338" y1="55.22246461054514" y2="61.114014263955674" stroke-width="5" stroke="#a9f0f9" stroke-linecap="round"></line><line x1="223.30411624537393" x2="217.41256659196338" y1="-456.77753538945484" y2="-450.88598573604435" stroke-width="5" stroke="#a9f0f9" stroke-linecap="round"></line><line x1="479.30411624537396" x2="473.41256659196335" y1="-456.77753538945484" y2="-450.88598573604435" stroke-width="5" stroke="#a9f0f9" stroke-linecap="round"></line><line x1="735.304116245374" x2="729.4125665919634" y1="-456.77753538945484" y2="-450.88598573604435" stroke-width="5" stroke="#a9f0f9" stroke-linecap="round"></line><line x1="223.30411624537393" x2="217.41256659196338" y1="-200.77753538945487" y2="-194.88598573604432" stroke-width="5" stroke="#a9f0f9" stroke-linecap="round"></line><line x1="479.30411624537396" x2="473.41256659196335" y1="-200.77753538945487" y2="-194.88598573604432" stroke-width="5" stroke="#a9f0f9" stroke-linecap="round"></line><line x1="735.304116245374" x2="729.4125665919634" y1="-200.77753538945487" y2="-194.88598573604432" stroke-width="5" stroke="#a9f0f9" stroke-linecap="round"></line><line x1="223.30411624537393" x2="217.41256659196338" y1="55.22246461054514" y2="61.114014263955674" stroke-width="5" stroke="#a9f0f9" stroke-linecap="round"></line><line x1="479.30411624537396" x2="473.41256659196335" y1="55.22246461054514" y2="61.114014263955674" stroke-width="5" stroke="#a9f0f9" stroke-linecap="round"></line><line x1="735.304116245374" x2="729.4125665919634" y1="55.22246461054514" y2="61.114014263955674" stroke-width="5" stroke="#a9f0f9" stroke-linecap="round"></line><line x1="95.98966346734352" x2="90.21961405443932" y1="64.9939463946991" y2="70.7639958076033" stroke-width="5" stroke="#a9f0f9" stroke-linecap="round"></line><line x1="95.98966346734352" x2="90.21961405443932" y1="-447.0060536053009" y2="-441.2360041923967" stroke-width="5" stroke="#a9f0f9" stroke-linecap="round"></line><line x1="351.9896634673435" x2="346.2196140544393" y1="-447.0060536053009" y2="-441.2360041923967" stroke-width="5" stroke="#a9f0f9" stroke-linecap="round"></line><line x1="607.9896634673435" x2="602.2196140544393" y1="-447.0060536053009" y2="-441.2360041923967" stroke-width="5" stroke="#a9f0f9" stroke-linecap="round"></line><line x1="95.98966346734352" x2="90.21961405443932" y1="-191.0060536053009" y2="-185.2360041923967" stroke-width="5" stroke="#a9f0f9" stroke-linecap="round"></line><line x1="351.9896634673435" x2="346.2196140544393" y1="-191.0060536053009" y2="-185.2360041923967" stroke-width="5" stroke="#a9f0f9" stroke-linecap="round"></line><line x1="607.9896634673435" x2="602.2196140544393" y1="-191.0060536053009" y2="-185.2360041923967" stroke-width="5" stroke="#a9f0f9" stroke-linecap="round"></line><line x1="95.98966346734352" x2="90.21961405443932" y1="64.9939463946991" y2="70.7639958076033" stroke-width="5" stroke="#a9f0f9" stroke-linecap="round"></line><line x1="351.9896634673435" x2="346.2196140544393" y1="64.9939463946991" y2="70.7639958076033" stroke-width="5" stroke="#a9f0f9" stroke-linecap="round"></line><line x1="607.9896634673435" x2="602.2196140544393" y1="64.9939463946991" y2="70.7639958076033" stroke-width="5" stroke="#a9f0f9" stroke-linecap="round"></line><line x1="208.42978662592412" x2="205.83921596937802" y1="93.05867098163213" y2="95.64924163817824" stroke-width="5" stroke="#a9f0f9" stroke-linecap="round"></line><line x1="208.42978662592412" x2="205.83921596937802" y1="-418.94132901836787" y2="-416.35075836182176" stroke-width="5" stroke="#a9f0f9" stroke-linecap="round"></line><line x1="464.4297866259241" x2="461.839215969378" y1="-418.94132901836787" y2="-416.35075836182176" stroke-width="5" stroke="#a9f0f9" stroke-linecap="round"></line><line x1="720.4297866259242" x2="717.8392159693781" y1="-418.94132901836787" y2="-416.35075836182176" stroke-width="5" stroke="#a9f0f9" stroke-linecap="round"></line><line x1="208.42978662592412" x2="205.83921596937802" y1="-162.94132901836787" y2="-160.35075836182176" stroke-width="5" stroke="#a9f0f9" stroke-linecap="round"></line><line x1="464.4297866259241" x2="461.839215969378" y1="-162.94132901836787" y2="-160.35075836182176" stroke-width="5" stroke="#a9f0f9" stroke-linecap="round"></line><line x1="720.4297866259242" x2="717.8392159693781" y1="-162.94132901836787" y2="-160.35075836182176" stroke-width="5" stroke="#a9f0f9" stroke-linecap="round"></line><line x1="208.42978662592412" x2="205.83921596937802" y1="93.05867098163213" y2="95.64924163817824" stroke-width="5" stroke="#a9f0f9" stroke-linecap="round"></line><line x1="464.4297866259241" x2="461.839215969378" y1="93.05867098163213" y2="95.64924163817824" stroke-width="5" stroke="#a9f0f9" stroke-linecap="round"></line><line x1="720.4297866259242" x2="717.8392159693781" y1="93.05867098163213" y2="95.64924163817824" stroke-width="5" stroke="#a9f0f9" stroke-linecap="round"></line><line x1="55.49149063640069" x2="50.00163573019771" y1="167.13604827733107" y2="172.62590318353406" stroke-width="5" stroke="#a9f0f9" stroke-linecap="round"></line><line x1="55.49149063640069" x2="50.00163573019771" y1="-344.86395172266896" y2="-339.3740968164659" stroke-width="5" stroke="#a9f0f9" stroke-linecap="round"></line><line x1="311.49149063640067" x2="306.00163573019773" y1="-344.86395172266896" y2="-339.3740968164659" stroke-width="5" stroke="#a9f0f9" stroke-linecap="round"></line><line x1="567.4914906364007" x2="562.0016357301977" y1="-344.86395172266896" y2="-339.3740968164659" stroke-width="5" stroke="#a9f0f9" stroke-linecap="round"></line><line x1="55.49149063640069" x2="50.00163573019771" y1="-88.86395172266893" y2="-83.37409681646594" stroke-width="5" stroke="#a9f0f9" stroke-linecap="round"></line><line x1="311.49149063640067" x2="306.00163573019773" y1="-88.86395172266893" y2="-83.37409681646594" stroke-width="5" stroke="#a9f0f9" stroke-linecap="round"></line><line x1="567.4914906364007" x2="562.0016357301977" y1="-88.86395172266893" y2="-83.37409681646594" stroke-width="5" stroke="#a9f0f9" stroke-linecap="round"></line><line x1="55.49149063640069" x2="50.00163573019771" y1="167.13604827733107" y2="172.62590318353406" stroke-width="5" stroke="#a9f0f9" stroke-linecap="round"></line><line x1="311.49149063640067" x2="306.00163573019773" y1="167.13604827733107" y2="172.62590318353406" stroke-width="5" stroke="#a9f0f9" stroke-linecap="round"></line><line x1="567.4914906364007" x2="562.0016357301977" y1="167.13604827733107" y2="172.62590318353406" stroke-width="5" stroke="#a9f0f9" stroke-linecap="round"></line><line x1="91.15378175748438" x2="86.45855950331313" y1="163.1141975215178" y2="167.80941977568907" stroke-width="5" stroke="#a9f0f9" stroke-linecap="round"></line><line x1="91.15378175748438" x2="86.45855950331313" y1="-348.8858024784822" y2="-344.1905802243109" stroke-width="5" stroke="#a9f0f9" stroke-linecap="round"></line><line x1="347.15378175748435" x2="342.45855950331315" y1="-348.8858024784822" y2="-344.1905802243109" stroke-width="5" stroke="#a9f0f9" stroke-linecap="round"></line><line x1="603.1537817574844" x2="598.4585595033132" y1="-348.8858024784822" y2="-344.1905802243109" stroke-width="5" stroke="#a9f0f9" stroke-linecap="round"></line><line x1="91.15378175748438" x2="86.45855950331313" y1="-92.88580247848219" y2="-88.19058022431093" stroke-width="5" stroke="#a9f0f9" stroke-linecap="round"></line><line x1="347.15378175748435" x2="342.45855950331315" y1="-92.88580247848219" y2="-88.19058022431093" stroke-width="5" stroke="#a9f0f9" stroke-linecap="round"></line><line x1="603.1537817574844" x2="598.4585595033132" y1="-92.88580247848219" y2="-88.19058022431093" stroke-width="5" stroke="#a9f0f9" stroke-linecap="round"></line><line x1="91.15378175748438" x2="86.45855950331313" y1="163.1141975215178" y2="167.80941977568907" stroke-width="5" stroke="#a9f0f9" stroke-linecap="round"></line><line x1="347.15378175748435" x2="342.45855950331315" y1="163.1141975215178" y2="167.80941977568907" stroke-width="5" stroke="#a9f0f9" stroke-linecap="round"></line><line x1="603.1537817574844" x2="598.4585595033132" y1="163.1141975215178" y2="167.80941977568907" stroke-width="5" stroke="#a9f0f9" stroke-linecap="round"></line><line x1="147.28196667154268" x2="144.9809740607715" y1="189.67774651962876" y2="191.97873913039993" stroke-width="5" stroke="#a9f0f9" stroke-linecap="round"></line><line x1="147.28196667154268" x2="144.9809740607715" y1="-322.3222534803713" y2="-320.02126086960004" stroke-width="5" stroke="#a9f0f9" stroke-linecap="round"></line><line x1="403.2819666715427" x2="400.9809740607715" y1="-322.3222534803713" y2="-320.02126086960004" stroke-width="5" stroke="#a9f0f9" stroke-linecap="round"></line><line x1="659.2819666715427" x2="656.9809740607715" y1="-322.3222534803713" y2="-320.02126086960004" stroke-width="5" stroke="#a9f0f9" stroke-linecap="round"></line><line x1="147.28196667154268" x2="144.9809740607715" y1="-66.32225348037124" y2="-64.02126086960007" stroke-width="5" stroke="#a9f0f9" stroke-linecap="round"></line><line x1="403.2819666715427" x2="400.9809740607715" y1="-66.32225348037124" y2="-64.02126086960007" stroke-width="5" stroke="#a9f0f9" stroke-linecap="round"></line><line x1="659.2819666715427" x2="656.9809740607715" y1="-66.32225348037124" y2="-64.02126086960007" stroke-width="5" stroke="#a9f0f9" stroke-linecap="round"></line><line x1="147.28196667154268" x2="144.9809740607715" y1="189.67774651962876" y2="191.97873913039993" stroke-width="5" stroke="#a9f0f9" stroke-linecap="round"></line><line x1="403.2819666715427" x2="400.9809740607715" y1="189.67774651962876" y2="191.97873913039993" stroke-width="5" stroke="#a9f0f9" stroke-linecap="round"></line><line x1="659.2819666715427" x2="656.9809740607715" y1="189.67774651962876" y2="191.97873913039993" stroke-width="5" stroke="#a9f0f9" stroke-linecap="round"></line><line x1="13.575002665629313" x2="8.664750850105975" y1="73.95433386612189" y2="78.86458568164522" stroke-width="5" stroke="#a9f0f9" stroke-linecap="round"></line><line x1="13.575002665629313" x2="8.664750850105975" y1="-438.0456661338781" y2="-433.1354143183548" stroke-width="5" stroke="#a9f0f9" stroke-linecap="round"></line><line x1="269.5750026656293" x2="264.664750850106" y1="-438.0456661338781" y2="-433.1354143183548" stroke-width="5" stroke="#a9f0f9" stroke-linecap="round"></line><line x1="525.5750026656293" x2="520.664750850106" y1="-438.0456661338781" y2="-433.1354143183548" stroke-width="5" stroke="#a9f0f9" stroke-linecap="round"></line><line x1="13.575002665629313" x2="8.664750850105975" y1="-182.04566613387811" y2="-177.13541431835478" stroke-width="5" stroke="#a9f0f9" stroke-linecap="round"></line><line x1="269.5750026656293" x2="264.664750850106" y1="-182.04566613387811" y2="-177.13541431835478" stroke-width="5" stroke="#a9f0f9" stroke-linecap="round"></line><line x1="525.5750026656293" x2="520.664750850106" y1="-182.04566613387811" y2="-177.13541431835478" stroke-width="5" stroke="#a9f0f9" stroke-linecap="round"></line><line x1="13.575002665629313" x2="8.664750850105975" y1="73.95433386612189" y2="78.86458568164522" stroke-width="5" stroke="#a9f0f9" stroke-linecap="round"></line><line x1="269.5750026656293" x2="264.664750850106" y1="73.95433386612189" y2="78.86458568164522" stroke-width="5" stroke="#a9f0f9" stroke-linecap="round"></line><line x1="525.5750026656293" x2="520.664750850106" y1="73.95433386612189" y2="78.86458568164522" stroke-width="5" stroke="#a9f0f9" stroke-linecap="round"></line>
  <animateTransform attributeName="transform" type="translate" values="0 0;-256 256" keyTimes="0;1" repeatCount="indefinite" dur="1.6666666666666665s"></animateTransform>
</g></g></svg>