<?xml version="1.0" encoding="utf-8"?>
<svg xmlns="http://www.w3.org/2000/svg" xmlns:xlink="http://www.w3.org/1999/xlink" style="background: rgb(8, 170, 225); display: block; position: relative; shape-rendering: auto;" width="256" height="256" preserveAspectRatio="xMidYMid" viewBox="0 0 256 256"><g transform="scale(1)"><g transform="translate(-255.658 255.658)">
  <line x1="245.01581599177948" x2="238.20954927116182" y1="169.95600711099704" y2="176.7622738316147" stroke-width="3" stroke="#01cbe1" stroke-linecap="round"></line><line x1="245.01581599177948" x2="238.20954927116182" y1="-342.043992889003" y2="-335.2377261683853" stroke-width="3" stroke="#01cbe1" stroke-linecap="round"></line><line x1="501.0158159917795" x2="494.2095492711618" y1="-342.043992889003" y2="-335.2377261683853" stroke-width="3" stroke="#01cbe1" stroke-linecap="round"></line><line x1="757.0158159917795" x2="750.2095492711618" y1="-342.043992889003" y2="-335.2377261683853" stroke-width="3" stroke="#01cbe1" stroke-linecap="round"></line><line x1="245.01581599177948" x2="238.20954927116182" y1="-86.04399288900296" y2="-79.23772616838531" stroke-width="3" stroke="#01cbe1" stroke-linecap="round"></line><line x1="501.0158159917795" x2="494.2095492711618" y1="-86.04399288900296" y2="-79.23772616838531" stroke-width="3" stroke="#01cbe1" stroke-linecap="round"></line><line x1="757.0158159917795" x2="750.2095492711618" y1="-86.04399288900296" y2="-79.23772616838531" stroke-width="3" stroke="#01cbe1" stroke-linecap="round"></line><line x1="245.01581599177948" x2="238.20954927116182" y1="169.95600711099704" y2="176.7622738316147" stroke-width="3" stroke="#01cbe1" stroke-linecap="round"></line><line x1="501.0158159917795" x2="494.2095492711618" y1="169.95600711099704" y2="176.7622738316147" stroke-width="3" stroke="#01cbe1" stroke-linecap="round"></line><line x1="757.0158159917795" x2="750.2095492711618" y1="169.95600711099704" y2="176.7622738316147" stroke-width="3" stroke="#01cbe1" stroke-linecap="round"></line><line x1="242.32421142899565" x2="236.7332046552256" y1="77.57293222955192" y2="83.16393900332199" stroke-width="3" stroke="#01cbe1" stroke-linecap="round"></line><line x1="242.32421142899565" x2="236.7332046552256" y1="-434.42706777044805" y2="-428.83606099667804" stroke-width="3" stroke="#01cbe1" stroke-linecap="round"></line><line x1="498.3242114289957" x2="492.73320465522556" y1="-434.42706777044805" y2="-428.83606099667804" stroke-width="3" stroke="#01cbe1" stroke-linecap="round"></line><line x1="754.3242114289957" x2="748.7332046552256" y1="-434.42706777044805" y2="-428.83606099667804" stroke-width="3" stroke="#01cbe1" stroke-linecap="round"></line><line x1="242.32421142899565" x2="236.7332046552256" y1="-178.42706777044808" y2="-172.83606099667801" stroke-width="3" stroke="#01cbe1" stroke-linecap="round"></line><line x1="498.3242114289957" x2="492.73320465522556" y1="-178.42706777044808" y2="-172.83606099667801" stroke-width="3" stroke="#01cbe1" stroke-linecap="round"></line><line x1="754.3242114289957" x2="748.7332046552256" y1="-178.42706777044808" y2="-172.83606099667801" stroke-width="3" stroke="#01cbe1" stroke-linecap="round"></line><line x1="242.32421142899565" x2="236.7332046552256" y1="77.57293222955192" y2="83.16393900332199" stroke-width="3" stroke="#01cbe1" stroke-linecap="round"></line><line x1="498.3242114289957" x2="492.73320465522556" y1="77.57293222955192" y2="83.16393900332199" stroke-width="3" stroke="#01cbe1" stroke-linecap="round"></line><line x1="754.3242114289957" x2="748.7332046552256" y1="77.57293222955192" y2="83.16393900332199" stroke-width="3" stroke="#01cbe1" stroke-linecap="round"></line><line x1="201.571546589011" x2="198.05713695455648" y1="178.28044395477525" y2="181.79485358922977" stroke-width="3" stroke="#01cbe1" stroke-linecap="round"></line><line x1="201.571546589011" x2="198.05713695455648" y1="-333.71955604522475" y2="-330.2051464107702" stroke-width="3" stroke="#01cbe1" stroke-linecap="round"></line><line x1="457.571546589011" x2="454.0571369545565" y1="-333.71955604522475" y2="-330.2051464107702" stroke-width="3" stroke="#01cbe1" stroke-linecap="round"></line><line x1="713.571546589011" x2="710.0571369545564" y1="-333.71955604522475" y2="-330.2051464107702" stroke-width="3" stroke="#01cbe1" stroke-linecap="round"></line><line x1="201.571546589011" x2="198.05713695455648" y1="-77.71955604522475" y2="-74.20514641077023" stroke-width="3" stroke="#01cbe1" stroke-linecap="round"></line><line x1="457.571546589011" x2="454.0571369545565" y1="-77.71955604522475" y2="-74.20514641077023" stroke-width="3" stroke="#01cbe1" stroke-linecap="round"></line><line x1="713.571546589011" x2="710.0571369545564" y1="-77.71955604522475" y2="-74.20514641077023" stroke-width="3" stroke="#01cbe1" stroke-linecap="round"></line><line x1="201.571546589011" x2="198.05713695455648" y1="178.28044395477525" y2="181.79485358922977" stroke-width="3" stroke="#01cbe1" stroke-linecap="round"></line><line x1="457.571546589011" x2="454.0571369545565" y1="178.28044395477525" y2="181.79485358922977" stroke-width="3" stroke="#01cbe1" stroke-linecap="round"></line><line x1="713.571546589011" x2="710.0571369545564" y1="178.28044395477525" y2="181.79485358922977" stroke-width="3" stroke="#01cbe1" stroke-linecap="round"></line><line x1="147.9205088148472" x2="142.33309271136596" y1="212.23379165421977" y2="217.82120775770102" stroke-width="3" stroke="#01cbe1" stroke-linecap="round"></line><line x1="147.9205088148472" x2="142.33309271136596" y1="-299.7662083457802" y2="-294.178792242299" stroke-width="3" stroke="#01cbe1" stroke-linecap="round"></line><line x1="403.9205088148472" x2="398.33309271136596" y1="-299.7662083457802" y2="-294.178792242299" stroke-width="3" stroke="#01cbe1" stroke-linecap="round"></line><line x1="659.9205088148472" x2="654.3330927113659" y1="-299.7662083457802" y2="-294.178792242299" stroke-width="3" stroke="#01cbe1" stroke-linecap="round"></line><line x1="147.9205088148472" x2="142.33309271136596" y1="-43.76620834578023" y2="-38.17879224229898" stroke-width="3" stroke="#01cbe1" stroke-linecap="round"></line><line x1="403.9205088148472" x2="398.33309271136596" y1="-43.76620834578023" y2="-38.17879224229898" stroke-width="3" stroke="#01cbe1" stroke-linecap="round"></line><line x1="659.9205088148472" x2="654.3330927113659" y1="-43.76620834578023" y2="-38.17879224229898" stroke-width="3" stroke="#01cbe1" stroke-linecap="round"></line><line x1="147.9205088148472" x2="142.33309271136596" y1="212.23379165421977" y2="217.82120775770102" stroke-width="3" stroke="#01cbe1" stroke-linecap="round"></line><line x1="403.9205088148472" x2="398.33309271136596" y1="212.23379165421977" y2="217.82120775770102" stroke-width="3" stroke="#01cbe1" stroke-linecap="round"></line><line x1="659.9205088148472" x2="654.3330927113659" y1="212.23379165421977" y2="217.82120775770102" stroke-width="3" stroke="#01cbe1" stroke-linecap="round"></line><line x1="206.4203951202874" x2="200.77797247887506" y1="50.260962078309625" y2="55.90338471972198" stroke-width="3" stroke="#01cbe1" stroke-linecap="round"></line><line x1="206.4203951202874" x2="200.77797247887506" y1="-461.7390379216904" y2="-456.096615280278" stroke-width="3" stroke="#01cbe1" stroke-linecap="round"></line><line x1="462.42039512028737" x2="456.7779724788751" y1="-461.7390379216904" y2="-456.096615280278" stroke-width="3" stroke="#01cbe1" stroke-linecap="round"></line><line x1="718.4203951202874" x2="712.7779724788751" y1="-461.7390379216904" y2="-456.096615280278" stroke-width="3" stroke="#01cbe1" stroke-linecap="round"></line><line x1="206.4203951202874" x2="200.77797247887506" y1="-205.73903792169037" y2="-200.09661528027803" stroke-width="3" stroke="#01cbe1" stroke-linecap="round"></line><line x1="462.42039512028737" x2="456.7779724788751" y1="-205.73903792169037" y2="-200.09661528027803" stroke-width="3" stroke="#01cbe1" stroke-linecap="round"></line><line x1="718.4203951202874" x2="712.7779724788751" y1="-205.73903792169037" y2="-200.09661528027803" stroke-width="3" stroke="#01cbe1" stroke-linecap="round"></line><line x1="206.4203951202874" x2="200.77797247887506" y1="50.260962078309625" y2="55.90338471972198" stroke-width="3" stroke="#01cbe1" stroke-linecap="round"></line><line x1="462.42039512028737" x2="456.7779724788751" y1="50.260962078309625" y2="55.90338471972198" stroke-width="3" stroke="#01cbe1" stroke-linecap="round"></line><line x1="718.4203951202874" x2="712.7779724788751" y1="50.260962078309625" y2="55.90338471972198" stroke-width="3" stroke="#01cbe1" stroke-linecap="round"></line><line x1="65.81995563480177" x2="59.397929890346404" y1="218.7030123821246" y2="225.12503812657997" stroke-width="3" stroke="#01cbe1" stroke-linecap="round"></line><line x1="65.81995563480177" x2="59.397929890346404" y1="-293.2969876178754" y2="-286.87496187342003" stroke-width="3" stroke="#01cbe1" stroke-linecap="round"></line><line x1="321.8199556348018" x2="315.3979298903464" y1="-293.2969876178754" y2="-286.87496187342003" stroke-width="3" stroke="#01cbe1" stroke-linecap="round"></line><line x1="577.8199556348018" x2="571.3979298903464" y1="-293.2969876178754" y2="-286.87496187342003" stroke-width="3" stroke="#01cbe1" stroke-linecap="round"></line><line x1="65.81995563480177" x2="59.397929890346404" y1="-37.2969876178754" y2="-30.874961873420034" stroke-width="3" stroke="#01cbe1" stroke-linecap="round"></line><line x1="321.8199556348018" x2="315.3979298903464" y1="-37.2969876178754" y2="-30.874961873420034" stroke-width="3" stroke="#01cbe1" stroke-linecap="round"></line><line x1="577.8199556348018" x2="571.3979298903464" y1="-37.2969876178754" y2="-30.874961873420034" stroke-width="3" stroke="#01cbe1" stroke-linecap="round"></line><line x1="65.81995563480177" x2="59.397929890346404" y1="218.7030123821246" y2="225.12503812657997" stroke-width="3" stroke="#01cbe1" stroke-linecap="round"></line><line x1="321.8199556348018" x2="315.3979298903464" y1="218.7030123821246" y2="225.12503812657997" stroke-width="3" stroke="#01cbe1" stroke-linecap="round"></line><line x1="577.8199556348018" x2="571.3979298903464" y1="218.7030123821246" y2="225.12503812657997" stroke-width="3" stroke="#01cbe1" stroke-linecap="round"></line><line x1="107.8601287269322" x2="104.6248921476813" y1="146.55233587815542" y2="149.78757245740633" stroke-width="3" stroke="#01cbe1" stroke-linecap="round"></line><line x1="107.8601287269322" x2="104.6248921476813" y1="-365.4476641218446" y2="-362.2124275425937" stroke-width="3" stroke="#01cbe1" stroke-linecap="round"></line><line x1="363.8601287269322" x2="360.6248921476813" y1="-365.4476641218446" y2="-362.2124275425937" stroke-width="3" stroke="#01cbe1" stroke-linecap="round"></line><line x1="619.8601287269322" x2="616.6248921476813" y1="-365.4476641218446" y2="-362.2124275425937" stroke-width="3" stroke="#01cbe1" stroke-linecap="round"></line><line x1="107.8601287269322" x2="104.6248921476813" y1="-109.44766412184458" y2="-106.21242754259367" stroke-width="3" stroke="#01cbe1" stroke-linecap="round"></line><line x1="363.8601287269322" x2="360.6248921476813" y1="-109.44766412184458" y2="-106.21242754259367" stroke-width="3" stroke="#01cbe1" stroke-linecap="round"></line><line x1="619.8601287269322" x2="616.6248921476813" y1="-109.44766412184458" y2="-106.21242754259367" stroke-width="3" stroke="#01cbe1" stroke-linecap="round"></line><line x1="107.8601287269322" x2="104.6248921476813" y1="146.55233587815542" y2="149.78757245740633" stroke-width="3" stroke="#01cbe1" stroke-linecap="round"></line><line x1="363.8601287269322" x2="360.6248921476813" y1="146.55233587815542" y2="149.78757245740633" stroke-width="3" stroke="#01cbe1" stroke-linecap="round"></line><line x1="619.8601287269322" x2="616.6248921476813" y1="146.55233587815542" y2="149.78757245740633" stroke-width="3" stroke="#01cbe1" stroke-linecap="round"></line><line x1="39.057242921130396" x2="32.48989913466393" y1="16.84591102948873" y2="23.413254815955202" stroke-width="3" stroke="#01cbe1" stroke-linecap="round"></line><line x1="39.057242921130396" x2="32.48989913466393" y1="-495.1540889705113" y2="-488.5867451840448" stroke-width="3" stroke="#01cbe1" stroke-linecap="round"></line><line x1="295.0572429211304" x2="288.4898991346639" y1="-495.1540889705113" y2="-488.5867451840448" stroke-width="3" stroke="#01cbe1" stroke-linecap="round"></line><line x1="551.0572429211304" x2="544.4898991346639" y1="-495.1540889705113" y2="-488.5867451840448" stroke-width="3" stroke="#01cbe1" stroke-linecap="round"></line><line x1="39.057242921130396" x2="32.48989913466393" y1="-239.15408897051128" y2="-232.5867451840448" stroke-width="3" stroke="#01cbe1" stroke-linecap="round"></line><line x1="295.0572429211304" x2="288.4898991346639" y1="-239.15408897051128" y2="-232.5867451840448" stroke-width="3" stroke="#01cbe1" stroke-linecap="round"></line><line x1="551.0572429211304" x2="544.4898991346639" y1="-239.15408897051128" y2="-232.5867451840448" stroke-width="3" stroke="#01cbe1" stroke-linecap="round"></line><line x1="39.057242921130396" x2="32.48989913466393" y1="16.84591102948873" y2="23.413254815955202" stroke-width="3" stroke="#01cbe1" stroke-linecap="round"></line><line x1="295.0572429211304" x2="288.4898991346639" y1="16.84591102948873" y2="23.413254815955202" stroke-width="3" stroke="#01cbe1" stroke-linecap="round"></line><line x1="551.0572429211304" x2="544.4898991346639" y1="16.84591102948873" y2="23.413254815955202" stroke-width="3" stroke="#01cbe1" stroke-linecap="round"></line><line x1="165.28156692563957" x2="162.036163172215" y1="247.52966223051104" y2="250.7750659839356" stroke-width="3" stroke="#01cbe1" stroke-linecap="round"></line><line x1="165.28156692563957" x2="162.036163172215" y1="-264.470337769489" y2="-261.22493401606437" stroke-width="3" stroke="#01cbe1" stroke-linecap="round"></line><line x1="421.2815669256396" x2="418.03616317221497" y1="-264.470337769489" y2="-261.22493401606437" stroke-width="3" stroke="#01cbe1" stroke-linecap="round"></line><line x1="677.2815669256396" x2="674.036163172215" y1="-264.470337769489" y2="-261.22493401606437" stroke-width="3" stroke="#01cbe1" stroke-linecap="round"></line><line x1="165.28156692563957" x2="162.036163172215" y1="-8.470337769488964" y2="-5.224934016064395" stroke-width="3" stroke="#01cbe1" stroke-linecap="round"></line><line x1="421.2815669256396" x2="418.03616317221497" y1="-8.470337769488964" y2="-5.224934016064395" stroke-width="3" stroke="#01cbe1" stroke-linecap="round"></line><line x1="677.2815669256396" x2="674.036163172215" y1="-8.470337769488964" y2="-5.224934016064395" stroke-width="3" stroke="#01cbe1" stroke-linecap="round"></line><line x1="165.28156692563957" x2="162.036163172215" y1="247.52966223051104" y2="250.7750659839356" stroke-width="3" stroke="#01cbe1" stroke-linecap="round"></line><line x1="421.2815669256396" x2="418.03616317221497" y1="247.52966223051104" y2="250.7750659839356" stroke-width="3" stroke="#01cbe1" stroke-linecap="round"></line><line x1="677.2815669256396" x2="674.036163172215" y1="247.52966223051104" y2="250.7750659839356" stroke-width="3" stroke="#01cbe1" stroke-linecap="round"></line><line x1="109.45935220964849" x2="106.42087242585798" y1="93.01227820304042" y2="96.05075798683093" stroke-width="3" stroke="#01cbe1" stroke-linecap="round"></line><line x1="109.45935220964849" x2="106.42087242585798" y1="-418.9877217969596" y2="-415.94924201316906" stroke-width="3" stroke="#01cbe1" stroke-linecap="round"></line><line x1="365.4593522096485" x2="362.42087242585797" y1="-418.9877217969596" y2="-415.94924201316906" stroke-width="3" stroke="#01cbe1" stroke-linecap="round"></line><line x1="621.4593522096485" x2="618.420872425858" y1="-418.9877217969596" y2="-415.94924201316906" stroke-width="3" stroke="#01cbe1" stroke-linecap="round"></line><line x1="109.45935220964849" x2="106.42087242585798" y1="-162.9877217969596" y2="-159.94924201316906" stroke-width="3" stroke="#01cbe1" stroke-linecap="round"></line><line x1="365.4593522096485" x2="362.42087242585797" y1="-162.9877217969596" y2="-159.94924201316906" stroke-width="3" stroke="#01cbe1" stroke-linecap="round"></line><line x1="621.4593522096485" x2="618.420872425858" y1="-162.9877217969596" y2="-159.94924201316906" stroke-width="3" stroke="#01cbe1" stroke-linecap="round"></line><line x1="109.45935220964849" x2="106.42087242585798" y1="93.01227820304042" y2="96.05075798683093" stroke-width="3" stroke="#01cbe1" stroke-linecap="round"></line><line x1="365.4593522096485" x2="362.42087242585797" y1="93.01227820304042" y2="96.05075798683093" stroke-width="3" stroke="#01cbe1" stroke-linecap="round"></line><line x1="621.4593522096485" x2="618.420872425858" y1="93.01227820304042" y2="96.05075798683093" stroke-width="3" stroke="#01cbe1" stroke-linecap="round"></line><line x1="141.3059766274925" x2="135.99397335264172" y1="106.8044947713663" y2="112.1164980462171" stroke-width="3" stroke="#01cbe1" stroke-linecap="round"></line><line x1="141.3059766274925" x2="135.99397335264172" y1="-405.1955052286337" y2="-399.8835019537829" stroke-width="3" stroke="#01cbe1" stroke-linecap="round"></line><line x1="397.3059766274925" x2="391.9939733526417" y1="-405.1955052286337" y2="-399.8835019537829" stroke-width="3" stroke="#01cbe1" stroke-linecap="round"></line><line x1="653.3059766274926" x2="647.9939733526417" y1="-405.1955052286337" y2="-399.8835019537829" stroke-width="3" stroke="#01cbe1" stroke-linecap="round"></line><line x1="141.3059766274925" x2="135.99397335264172" y1="-149.1955052286337" y2="-143.8835019537829" stroke-width="3" stroke="#01cbe1" stroke-linecap="round"></line><line x1="397.3059766274925" x2="391.9939733526417" y1="-149.1955052286337" y2="-143.8835019537829" stroke-width="3" stroke="#01cbe1" stroke-linecap="round"></line><line x1="653.3059766274926" x2="647.9939733526417" y1="-149.1955052286337" y2="-143.8835019537829" stroke-width="3" stroke="#01cbe1" stroke-linecap="round"></line><line x1="141.3059766274925" x2="135.99397335264172" y1="106.8044947713663" y2="112.1164980462171" stroke-width="3" stroke="#01cbe1" stroke-linecap="round"></line><line x1="397.3059766274925" x2="391.9939733526417" y1="106.8044947713663" y2="112.1164980462171" stroke-width="3" stroke="#01cbe1" stroke-linecap="round"></line><line x1="653.3059766274926" x2="647.9939733526417" y1="106.8044947713663" y2="112.1164980462171" stroke-width="3" stroke="#01cbe1" stroke-linecap="round"></line><line x1="29.693213774871886" x2="25.716233640748094" y1="97.3012354186734" y2="101.27821555279718" stroke-width="3" stroke="#01cbe1" stroke-linecap="round"></line><line x1="29.693213774871886" x2="25.716233640748094" y1="-414.6987645813266" y2="-410.7217844472028" stroke-width="3" stroke="#01cbe1" stroke-linecap="round"></line><line x1="285.6932137748719" x2="281.7162336407481" y1="-414.6987645813266" y2="-410.7217844472028" stroke-width="3" stroke="#01cbe1" stroke-linecap="round"></line><line x1="541.6932137748719" x2="537.7162336407481" y1="-414.6987645813266" y2="-410.7217844472028" stroke-width="3" stroke="#01cbe1" stroke-linecap="round"></line><line x1="29.693213774871886" x2="25.716233640748094" y1="-158.6987645813266" y2="-154.72178444720282" stroke-width="3" stroke="#01cbe1" stroke-linecap="round"></line><line x1="285.6932137748719" x2="281.7162336407481" y1="-158.6987645813266" y2="-154.72178444720282" stroke-width="3" stroke="#01cbe1" stroke-linecap="round"></line><line x1="541.6932137748719" x2="537.7162336407481" y1="-158.6987645813266" y2="-154.72178444720282" stroke-width="3" stroke="#01cbe1" stroke-linecap="round"></line><line x1="29.693213774871886" x2="25.716233640748094" y1="97.3012354186734" y2="101.27821555279718" stroke-width="3" stroke="#01cbe1" stroke-linecap="round"></line><line x1="285.6932137748719" x2="281.7162336407481" y1="97.3012354186734" y2="101.27821555279718" stroke-width="3" stroke="#01cbe1" stroke-linecap="round"></line><line x1="541.6932137748719" x2="537.7162336407481" y1="97.3012354186734" y2="101.27821555279718" stroke-width="3" stroke="#01cbe1" stroke-linecap="round"></line><line x1="66.32124608922659" x2="61.191001338499326" y1="61.70743109014476" y2="66.83767584087202" stroke-width="3" stroke="#01cbe1" stroke-linecap="round"></line><line x1="66.32124608922659" x2="61.191001338499326" y1="-450.2925689098552" y2="-445.162324159128" stroke-width="3" stroke="#01cbe1" stroke-linecap="round"></line><line x1="322.3212460892266" x2="317.19100133849935" y1="-450.2925689098552" y2="-445.162324159128" stroke-width="3" stroke="#01cbe1" stroke-linecap="round"></line><line x1="578.3212460892266" x2="573.1910013384993" y1="-450.2925689098552" y2="-445.162324159128" stroke-width="3" stroke="#01cbe1" stroke-linecap="round"></line><line x1="66.32124608922659" x2="61.191001338499326" y1="-194.29256890985525" y2="-189.162324159128" stroke-width="3" stroke="#01cbe1" stroke-linecap="round"></line><line x1="322.3212460892266" x2="317.19100133849935" y1="-194.29256890985525" y2="-189.162324159128" stroke-width="3" stroke="#01cbe1" stroke-linecap="round"></line><line x1="578.3212460892266" x2="573.1910013384993" y1="-194.29256890985525" y2="-189.162324159128" stroke-width="3" stroke="#01cbe1" stroke-linecap="round"></line><line x1="66.32124608922659" x2="61.191001338499326" y1="61.70743109014476" y2="66.83767584087202" stroke-width="3" stroke="#01cbe1" stroke-linecap="round"></line><line x1="322.3212460892266" x2="317.19100133849935" y1="61.70743109014476" y2="66.83767584087202" stroke-width="3" stroke="#01cbe1" stroke-linecap="round"></line><line x1="578.3212460892266" x2="573.1910013384993" y1="61.70743109014476" y2="66.83767584087202" stroke-width="3" stroke="#01cbe1" stroke-linecap="round"></line>
  <animateTransform attributeName="transform" type="translate" values="0 0;-256 256" keyTimes="0;1" repeatCount="indefinite" dur="3.571428571428571s"></animateTransform>
</g><g transform="translate(-255.316 255.316)">
  <line x1="159.38374870551547" x2="152.47013070432854" y1="96.09159162787313" y2="103.00520962906006" stroke-width="3" stroke="#38e0f5" stroke-linecap="round"></line><line x1="159.38374870551547" x2="152.47013070432854" y1="-415.90840837212687" y2="-408.99479037093994" stroke-width="3" stroke="#38e0f5" stroke-linecap="round"></line><line x1="415.3837487055155" x2="408.47013070432854" y1="-415.90840837212687" y2="-408.99479037093994" stroke-width="3" stroke="#38e0f5" stroke-linecap="round"></line><line x1="671.3837487055155" x2="664.4701307043285" y1="-415.90840837212687" y2="-408.99479037093994" stroke-width="3" stroke="#38e0f5" stroke-linecap="round"></line><line x1="159.38374870551547" x2="152.47013070432854" y1="-159.90840837212687" y2="-152.99479037093994" stroke-width="3" stroke="#38e0f5" stroke-linecap="round"></line><line x1="415.3837487055155" x2="408.47013070432854" y1="-159.90840837212687" y2="-152.99479037093994" stroke-width="3" stroke="#38e0f5" stroke-linecap="round"></line><line x1="671.3837487055155" x2="664.4701307043285" y1="-159.90840837212687" y2="-152.99479037093994" stroke-width="3" stroke="#38e0f5" stroke-linecap="round"></line><line x1="159.38374870551547" x2="152.47013070432854" y1="96.09159162787313" y2="103.00520962906006" stroke-width="3" stroke="#38e0f5" stroke-linecap="round"></line><line x1="415.3837487055155" x2="408.47013070432854" y1="96.09159162787313" y2="103.00520962906006" stroke-width="3" stroke="#38e0f5" stroke-linecap="round"></line><line x1="671.3837487055155" x2="664.4701307043285" y1="96.09159162787313" y2="103.00520962906006" stroke-width="3" stroke="#38e0f5" stroke-linecap="round"></line><line x1="141.82969952699506" x2="135.9870081523847" y1="101.54248055881214" y2="107.3851719334225" stroke-width="3" stroke="#38e0f5" stroke-linecap="round"></line><line x1="141.82969952699506" x2="135.9870081523847" y1="-410.45751944118786" y2="-404.6148280665775" stroke-width="3" stroke="#38e0f5" stroke-linecap="round"></line><line x1="397.82969952699506" x2="391.9870081523847" y1="-410.45751944118786" y2="-404.6148280665775" stroke-width="3" stroke="#38e0f5" stroke-linecap="round"></line><line x1="653.829699526995" x2="647.9870081523848" y1="-410.45751944118786" y2="-404.6148280665775" stroke-width="3" stroke="#38e0f5" stroke-linecap="round"></line><line x1="141.82969952699506" x2="135.9870081523847" y1="-154.45751944118786" y2="-148.6148280665775" stroke-width="3" stroke="#38e0f5" stroke-linecap="round"></line><line x1="397.82969952699506" x2="391.9870081523847" y1="-154.45751944118786" y2="-148.6148280665775" stroke-width="3" stroke="#38e0f5" stroke-linecap="round"></line><line x1="653.829699526995" x2="647.9870081523848" y1="-154.45751944118786" y2="-148.6148280665775" stroke-width="3" stroke="#38e0f5" stroke-linecap="round"></line><line x1="141.82969952699506" x2="135.9870081523847" y1="101.54248055881214" y2="107.3851719334225" stroke-width="3" stroke="#38e0f5" stroke-linecap="round"></line><line x1="397.82969952699506" x2="391.9870081523847" y1="101.54248055881214" y2="107.3851719334225" stroke-width="3" stroke="#38e0f5" stroke-linecap="round"></line><line x1="653.829699526995" x2="647.9870081523848" y1="101.54248055881214" y2="107.3851719334225" stroke-width="3" stroke="#38e0f5" stroke-linecap="round"></line><line x1="161.73411559313934" x2="158.07630729001653" y1="161.8878290315048" y2="165.5456373346276" stroke-width="3" stroke="#38e0f5" stroke-linecap="round"></line><line x1="161.73411559313934" x2="158.07630729001653" y1="-350.1121709684952" y2="-346.4543626653724" stroke-width="3" stroke="#38e0f5" stroke-linecap="round"></line><line x1="417.73411559313934" x2="414.07630729001653" y1="-350.1121709684952" y2="-346.4543626653724" stroke-width="3" stroke="#38e0f5" stroke-linecap="round"></line><line x1="673.7341155931393" x2="670.0763072900165" y1="-350.1121709684952" y2="-346.4543626653724" stroke-width="3" stroke="#38e0f5" stroke-linecap="round"></line><line x1="161.73411559313934" x2="158.07630729001653" y1="-94.1121709684952" y2="-90.4543626653724" stroke-width="3" stroke="#38e0f5" stroke-linecap="round"></line><line x1="417.73411559313934" x2="414.07630729001653" y1="-94.1121709684952" y2="-90.4543626653724" stroke-width="3" stroke="#38e0f5" stroke-linecap="round"></line><line x1="673.7341155931393" x2="670.0763072900165" y1="-94.1121709684952" y2="-90.4543626653724" stroke-width="3" stroke="#38e0f5" stroke-linecap="round"></line><line x1="161.73411559313934" x2="158.07630729001653" y1="161.8878290315048" y2="165.5456373346276" stroke-width="3" stroke="#38e0f5" stroke-linecap="round"></line><line x1="417.73411559313934" x2="414.07630729001653" y1="161.8878290315048" y2="165.5456373346276" stroke-width="3" stroke="#38e0f5" stroke-linecap="round"></line><line x1="673.7341155931393" x2="670.0763072900165" y1="161.8878290315048" y2="165.5456373346276" stroke-width="3" stroke="#38e0f5" stroke-linecap="round"></line><line x1="169.11297937959318" x2="163.48021113725997" y1="133.52658691917713" y2="139.15935516151035" stroke-width="3" stroke="#38e0f5" stroke-linecap="round"></line><line x1="169.11297937959318" x2="163.48021113725997" y1="-378.47341308082287" y2="-372.84064483848965" stroke-width="3" stroke="#38e0f5" stroke-linecap="round"></line><line x1="425.1129793795932" x2="419.48021113725997" y1="-378.47341308082287" y2="-372.84064483848965" stroke-width="3" stroke="#38e0f5" stroke-linecap="round"></line><line x1="681.1129793795932" x2="675.48021113726" y1="-378.47341308082287" y2="-372.84064483848965" stroke-width="3" stroke="#38e0f5" stroke-linecap="round"></line><line x1="169.11297937959318" x2="163.48021113725997" y1="-122.47341308082287" y2="-116.84064483848965" stroke-width="3" stroke="#38e0f5" stroke-linecap="round"></line><line x1="425.1129793795932" x2="419.48021113725997" y1="-122.47341308082287" y2="-116.84064483848965" stroke-width="3" stroke="#38e0f5" stroke-linecap="round"></line><line x1="681.1129793795932" x2="675.48021113726" y1="-122.47341308082287" y2="-116.84064483848965" stroke-width="3" stroke="#38e0f5" stroke-linecap="round"></line><line x1="169.11297937959318" x2="163.48021113725997" y1="133.52658691917713" y2="139.15935516151035" stroke-width="3" stroke="#38e0f5" stroke-linecap="round"></line><line x1="425.1129793795932" x2="419.48021113725997" y1="133.52658691917713" y2="139.15935516151035" stroke-width="3" stroke="#38e0f5" stroke-linecap="round"></line><line x1="681.1129793795932" x2="675.48021113726" y1="133.52658691917713" y2="139.15935516151035" stroke-width="3" stroke="#38e0f5" stroke-linecap="round"></line><line x1="24.54310960715138" x2="20.979011699593073" y1="195.62179114102875" y2="199.18588904858703" stroke-width="3" stroke="#38e0f5" stroke-linecap="round"></line><line x1="24.54310960715138" x2="20.979011699593073" y1="-316.3782088589712" y2="-312.814110951413" stroke-width="3" stroke="#38e0f5" stroke-linecap="round"></line><line x1="280.5431096071514" x2="276.97901169959306" y1="-316.3782088589712" y2="-312.814110951413" stroke-width="3" stroke="#38e0f5" stroke-linecap="round"></line><line x1="536.5431096071513" x2="532.9790116995931" y1="-316.3782088589712" y2="-312.814110951413" stroke-width="3" stroke="#38e0f5" stroke-linecap="round"></line><line x1="24.54310960715138" x2="20.979011699593073" y1="-60.37820885897125" y2="-56.81411095141297" stroke-width="3" stroke="#38e0f5" stroke-linecap="round"></line><line x1="280.5431096071514" x2="276.97901169959306" y1="-60.37820885897125" y2="-56.81411095141297" stroke-width="3" stroke="#38e0f5" stroke-linecap="round"></line><line x1="536.5431096071513" x2="532.9790116995931" y1="-60.37820885897125" y2="-56.81411095141297" stroke-width="3" stroke="#38e0f5" stroke-linecap="round"></line><line x1="24.54310960715138" x2="20.979011699593073" y1="195.62179114102875" y2="199.18588904858703" stroke-width="3" stroke="#38e0f5" stroke-linecap="round"></line><line x1="280.5431096071514" x2="276.97901169959306" y1="195.62179114102875" y2="199.18588904858703" stroke-width="3" stroke="#38e0f5" stroke-linecap="round"></line><line x1="536.5431096071513" x2="532.9790116995931" y1="195.62179114102875" y2="199.18588904858703" stroke-width="3" stroke="#38e0f5" stroke-linecap="round"></line><line x1="158.06905190172867" x2="152.26167882407427" y1="50.19961193326942" y2="56.006985010923856" stroke-width="3" stroke="#38e0f5" stroke-linecap="round"></line><line x1="158.06905190172867" x2="152.26167882407427" y1="-461.8003880667306" y2="-455.99301498907613" stroke-width="3" stroke="#38e0f5" stroke-linecap="round"></line><line x1="414.0690519017287" x2="408.26167882407424" y1="-461.8003880667306" y2="-455.99301498907613" stroke-width="3" stroke="#38e0f5" stroke-linecap="round"></line><line x1="670.0690519017287" x2="664.2616788240742" y1="-461.8003880667306" y2="-455.99301498907613" stroke-width="3" stroke="#38e0f5" stroke-linecap="round"></line><line x1="158.06905190172867" x2="152.26167882407427" y1="-205.8003880667306" y2="-199.99301498907613" stroke-width="3" stroke="#38e0f5" stroke-linecap="round"></line><line x1="414.0690519017287" x2="408.26167882407424" y1="-205.8003880667306" y2="-199.99301498907613" stroke-width="3" stroke="#38e0f5" stroke-linecap="round"></line><line x1="670.0690519017287" x2="664.2616788240742" y1="-205.8003880667306" y2="-199.99301498907613" stroke-width="3" stroke="#38e0f5" stroke-linecap="round"></line><line x1="158.06905190172867" x2="152.26167882407427" y1="50.19961193326942" y2="56.006985010923856" stroke-width="3" stroke="#38e0f5" stroke-linecap="round"></line><line x1="414.0690519017287" x2="408.26167882407424" y1="50.19961193326942" y2="56.006985010923856" stroke-width="3" stroke="#38e0f5" stroke-linecap="round"></line><line x1="670.0690519017287" x2="664.2616788240742" y1="50.19961193326942" y2="56.006985010923856" stroke-width="3" stroke="#38e0f5" stroke-linecap="round"></line><line x1="153.49395609006243" x2="149.5792460256324" y1="214.92031646134254" y2="218.83502652577258" stroke-width="3" stroke="#38e0f5" stroke-linecap="round"></line><line x1="153.49395609006243" x2="149.5792460256324" y1="-297.0796835386575" y2="-293.1649734742274" stroke-width="3" stroke="#38e0f5" stroke-linecap="round"></line><line x1="409.4939560900624" x2="405.5792460256324" y1="-297.0796835386575" y2="-293.1649734742274" stroke-width="3" stroke="#38e0f5" stroke-linecap="round"></line><line x1="665.4939560900624" x2="661.5792460256324" y1="-297.0796835386575" y2="-293.1649734742274" stroke-width="3" stroke="#38e0f5" stroke-linecap="round"></line><line x1="153.49395609006243" x2="149.5792460256324" y1="-41.07968353865746" y2="-37.16497347422742" stroke-width="3" stroke="#38e0f5" stroke-linecap="round"></line><line x1="409.4939560900624" x2="405.5792460256324" y1="-41.07968353865746" y2="-37.16497347422742" stroke-width="3" stroke="#38e0f5" stroke-linecap="round"></line><line x1="665.4939560900624" x2="661.5792460256324" y1="-41.07968353865746" y2="-37.16497347422742" stroke-width="3" stroke="#38e0f5" stroke-linecap="round"></line><line x1="153.49395609006243" x2="149.5792460256324" y1="214.92031646134254" y2="218.83502652577258" stroke-width="3" stroke="#38e0f5" stroke-linecap="round"></line><line x1="409.4939560900624" x2="405.5792460256324" y1="214.92031646134254" y2="218.83502652577258" stroke-width="3" stroke="#38e0f5" stroke-linecap="round"></line><line x1="665.4939560900624" x2="661.5792460256324" y1="214.92031646134254" y2="218.83502652577258" stroke-width="3" stroke="#38e0f5" stroke-linecap="round"></line><line x1="116.53154120793312" x2="111.54255439096636" y1="203.79994745241015" y2="208.7889342693769" stroke-width="3" stroke="#38e0f5" stroke-linecap="round"></line><line x1="116.53154120793312" x2="111.54255439096636" y1="-308.20005254758985" y2="-303.2110657306231" stroke-width="3" stroke="#38e0f5" stroke-linecap="round"></line><line x1="372.5315412079331" x2="367.54255439096636" y1="-308.20005254758985" y2="-303.2110657306231" stroke-width="3" stroke="#38e0f5" stroke-linecap="round"></line><line x1="628.5315412079331" x2="623.5425543909664" y1="-308.20005254758985" y2="-303.2110657306231" stroke-width="3" stroke="#38e0f5" stroke-linecap="round"></line><line x1="116.53154120793312" x2="111.54255439096636" y1="-52.20005254758985" y2="-47.21106573062309" stroke-width="3" stroke="#38e0f5" stroke-linecap="round"></line><line x1="372.5315412079331" x2="367.54255439096636" y1="-52.20005254758985" y2="-47.21106573062309" stroke-width="3" stroke="#38e0f5" stroke-linecap="round"></line><line x1="628.5315412079331" x2="623.5425543909664" y1="-52.20005254758985" y2="-47.21106573062309" stroke-width="3" stroke="#38e0f5" stroke-linecap="round"></line><line x1="116.53154120793312" x2="111.54255439096636" y1="203.79994745241015" y2="208.7889342693769" stroke-width="3" stroke="#38e0f5" stroke-linecap="round"></line><line x1="372.5315412079331" x2="367.54255439096636" y1="203.79994745241015" y2="208.7889342693769" stroke-width="3" stroke="#38e0f5" stroke-linecap="round"></line><line x1="628.5315412079331" x2="623.5425543909664" y1="203.79994745241015" y2="208.7889342693769" stroke-width="3" stroke="#38e0f5" stroke-linecap="round"></line><line x1="19.08607820403898" x2="12.642405894077742" y1="72.23838122505595" y2="78.68205353501719" stroke-width="3" stroke="#38e0f5" stroke-linecap="round"></line><line x1="19.08607820403898" x2="12.642405894077742" y1="-439.76161877494405" y2="-433.3179464649828" stroke-width="3" stroke="#38e0f5" stroke-linecap="round"></line><line x1="275.086078204039" x2="268.64240589407774" y1="-439.76161877494405" y2="-433.3179464649828" stroke-width="3" stroke="#38e0f5" stroke-linecap="round"></line><line x1="531.0860782040389" x2="524.6424058940778" y1="-439.76161877494405" y2="-433.3179464649828" stroke-width="3" stroke="#38e0f5" stroke-linecap="round"></line><line x1="19.08607820403898" x2="12.642405894077742" y1="-183.76161877494405" y2="-177.3179464649828" stroke-width="3" stroke="#38e0f5" stroke-linecap="round"></line><line x1="275.086078204039" x2="268.64240589407774" y1="-183.76161877494405" y2="-177.3179464649828" stroke-width="3" stroke="#38e0f5" stroke-linecap="round"></line><line x1="531.0860782040389" x2="524.6424058940778" y1="-183.76161877494405" y2="-177.3179464649828" stroke-width="3" stroke="#38e0f5" stroke-linecap="round"></line><line x1="19.08607820403898" x2="12.642405894077742" y1="72.23838122505595" y2="78.68205353501719" stroke-width="3" stroke="#38e0f5" stroke-linecap="round"></line><line x1="275.086078204039" x2="268.64240589407774" y1="72.23838122505595" y2="78.68205353501719" stroke-width="3" stroke="#38e0f5" stroke-linecap="round"></line><line x1="531.0860782040389" x2="524.6424058940778" y1="72.23838122505595" y2="78.68205353501719" stroke-width="3" stroke="#38e0f5" stroke-linecap="round"></line><line x1="118.32059501578465" x2="114.26331588520225" y1="202.51643544375167" y2="206.57371457433408" stroke-width="3" stroke="#38e0f5" stroke-linecap="round"></line><line x1="118.32059501578465" x2="114.26331588520225" y1="-309.4835645562483" y2="-305.4262854256659" stroke-width="3" stroke="#38e0f5" stroke-linecap="round"></line><line x1="374.32059501578465" x2="370.26331588520225" y1="-309.4835645562483" y2="-305.4262854256659" stroke-width="3" stroke="#38e0f5" stroke-linecap="round"></line><line x1="630.3205950157846" x2="626.2633158852022" y1="-309.4835645562483" y2="-305.4262854256659" stroke-width="3" stroke="#38e0f5" stroke-linecap="round"></line><line x1="118.32059501578465" x2="114.26331588520225" y1="-53.483564556248325" y2="-49.426285425665924" stroke-width="3" stroke="#38e0f5" stroke-linecap="round"></line><line x1="374.32059501578465" x2="370.26331588520225" y1="-53.483564556248325" y2="-49.426285425665924" stroke-width="3" stroke="#38e0f5" stroke-linecap="round"></line><line x1="630.3205950157846" x2="626.2633158852022" y1="-53.483564556248325" y2="-49.426285425665924" stroke-width="3" stroke="#38e0f5" stroke-linecap="round"></line><line x1="118.32059501578465" x2="114.26331588520225" y1="202.51643544375167" y2="206.57371457433408" stroke-width="3" stroke="#38e0f5" stroke-linecap="round"></line><line x1="374.32059501578465" x2="370.26331588520225" y1="202.51643544375167" y2="206.57371457433408" stroke-width="3" stroke="#38e0f5" stroke-linecap="round"></line><line x1="630.3205950157846" x2="626.2633158852022" y1="202.51643544375167" y2="206.57371457433408" stroke-width="3" stroke="#38e0f5" stroke-linecap="round"></line><line x1="50.802788917305016" x2="44.551360633177005" y1="145.34662408602696" y2="151.59805237015496" stroke-width="3" stroke="#38e0f5" stroke-linecap="round"></line><line x1="50.802788917305016" x2="44.551360633177005" y1="-366.65337591397304" y2="-360.40194762984504" stroke-width="3" stroke="#38e0f5" stroke-linecap="round"></line><line x1="306.802788917305" x2="300.551360633177" y1="-366.65337591397304" y2="-360.40194762984504" stroke-width="3" stroke="#38e0f5" stroke-linecap="round"></line><line x1="562.8027889173051" x2="556.551360633177" y1="-366.65337591397304" y2="-360.40194762984504" stroke-width="3" stroke="#38e0f5" stroke-linecap="round"></line><line x1="50.802788917305016" x2="44.551360633177005" y1="-110.65337591397304" y2="-104.40194762984504" stroke-width="3" stroke="#38e0f5" stroke-linecap="round"></line><line x1="306.802788917305" x2="300.551360633177" y1="-110.65337591397304" y2="-104.40194762984504" stroke-width="3" stroke="#38e0f5" stroke-linecap="round"></line><line x1="562.8027889173051" x2="556.551360633177" y1="-110.65337591397304" y2="-104.40194762984504" stroke-width="3" stroke="#38e0f5" stroke-linecap="round"></line><line x1="50.802788917305016" x2="44.551360633177005" y1="145.34662408602696" y2="151.59805237015496" stroke-width="3" stroke="#38e0f5" stroke-linecap="round"></line><line x1="306.802788917305" x2="300.551360633177" y1="145.34662408602696" y2="151.59805237015496" stroke-width="3" stroke="#38e0f5" stroke-linecap="round"></line><line x1="562.8027889173051" x2="556.551360633177" y1="145.34662408602696" y2="151.59805237015496" stroke-width="3" stroke="#38e0f5" stroke-linecap="round"></line><line x1="237.2535623269689" x2="233.33285634730248" y1="28.809794406926823" y2="32.73050038659322" stroke-width="3" stroke="#a9f0f9" stroke-linecap="round"></line><line x1="237.2535623269689" x2="233.33285634730248" y1="-483.1902055930732" y2="-479.26949961340677" stroke-width="3" stroke="#a9f0f9" stroke-linecap="round"></line><line x1="493.2535623269689" x2="489.3328563473025" y1="-483.1902055930732" y2="-479.26949961340677" stroke-width="3" stroke="#a9f0f9" stroke-linecap="round"></line><line x1="749.2535623269689" x2="745.3328563473025" y1="-483.1902055930732" y2="-479.26949961340677" stroke-width="3" stroke="#a9f0f9" stroke-linecap="round"></line><line x1="237.2535623269689" x2="233.33285634730248" y1="-227.1902055930732" y2="-223.26949961340677" stroke-width="3" stroke="#a9f0f9" stroke-linecap="round"></line><line x1="493.2535623269689" x2="489.3328563473025" y1="-227.1902055930732" y2="-223.26949961340677" stroke-width="3" stroke="#a9f0f9" stroke-linecap="round"></line><line x1="749.2535623269689" x2="745.3328563473025" y1="-227.1902055930732" y2="-223.26949961340677" stroke-width="3" stroke="#a9f0f9" stroke-linecap="round"></line><line x1="237.2535623269689" x2="233.33285634730248" y1="28.809794406926823" y2="32.73050038659322" stroke-width="3" stroke="#a9f0f9" stroke-linecap="round"></line><line x1="493.2535623269689" x2="489.3328563473025" y1="28.809794406926823" y2="32.73050038659322" stroke-width="3" stroke="#a9f0f9" stroke-linecap="round"></line><line x1="749.2535623269689" x2="745.3328563473025" y1="28.809794406926823" y2="32.73050038659322" stroke-width="3" stroke="#a9f0f9" stroke-linecap="round"></line><line x1="245.09249032437924" x2="239.65008526902477" y1="142.71611444092827" y2="148.15851949628274" stroke-width="3" stroke="#38e0f5" stroke-linecap="round"></line><line x1="245.09249032437924" x2="239.65008526902477" y1="-369.28388555907173" y2="-363.84148050371726" stroke-width="3" stroke="#38e0f5" stroke-linecap="round"></line><line x1="501.09249032437924" x2="495.65008526902477" y1="-369.28388555907173" y2="-363.84148050371726" stroke-width="3" stroke="#38e0f5" stroke-linecap="round"></line><line x1="757.0924903243792" x2="751.6500852690248" y1="-369.28388555907173" y2="-363.84148050371726" stroke-width="3" stroke="#38e0f5" stroke-linecap="round"></line><line x1="245.09249032437924" x2="239.65008526902477" y1="-113.28388555907173" y2="-107.84148050371726" stroke-width="3" stroke="#38e0f5" stroke-linecap="round"></line><line x1="501.09249032437924" x2="495.65008526902477" y1="-113.28388555907173" y2="-107.84148050371726" stroke-width="3" stroke="#38e0f5" stroke-linecap="round"></line><line x1="757.0924903243792" x2="751.6500852690248" y1="-113.28388555907173" y2="-107.84148050371726" stroke-width="3" stroke="#38e0f5" stroke-linecap="round"></line><line x1="245.09249032437924" x2="239.65008526902477" y1="142.71611444092827" y2="148.15851949628274" stroke-width="3" stroke="#38e0f5" stroke-linecap="round"></line><line x1="501.09249032437924" x2="495.65008526902477" y1="142.71611444092827" y2="148.15851949628274" stroke-width="3" stroke="#38e0f5" stroke-linecap="round"></line><line x1="757.0924903243792" x2="751.6500852690248" y1="142.71611444092827" y2="148.15851949628274" stroke-width="3" stroke="#38e0f5" stroke-linecap="round"></line>
  <animateTransform attributeName="transform" type="translate" values="0 0;-256 256" keyTimes="0;1" repeatCount="indefinite" dur="1.7857142857142856s"></animateTransform>
</g><g transform="translate(-254.974 254.974)">
  <line x1="17.77916509269487" x2="14.485597741380797" y1="131.38656308419473" y2="134.68013043550883" stroke-width="3" stroke="#a9f0f9" stroke-linecap="round"></line><line x1="17.77916509269487" x2="14.485597741380797" y1="-380.61343691580527" y2="-377.31986956449117" stroke-width="3" stroke="#a9f0f9" stroke-linecap="round"></line><line x1="273.7791650926949" x2="270.4855977413808" y1="-380.61343691580527" y2="-377.31986956449117" stroke-width="3" stroke="#a9f0f9" stroke-linecap="round"></line><line x1="529.7791650926948" x2="526.4855977413808" y1="-380.61343691580527" y2="-377.31986956449117" stroke-width="3" stroke="#a9f0f9" stroke-linecap="round"></line><line x1="17.77916509269487" x2="14.485597741380797" y1="-124.61343691580527" y2="-121.31986956449117" stroke-width="3" stroke="#a9f0f9" stroke-linecap="round"></line><line x1="273.7791650926949" x2="270.4855977413808" y1="-124.61343691580527" y2="-121.31986956449117" stroke-width="3" stroke="#a9f0f9" stroke-linecap="round"></line><line x1="529.7791650926948" x2="526.4855977413808" y1="-124.61343691580527" y2="-121.31986956449117" stroke-width="3" stroke="#a9f0f9" stroke-linecap="round"></line><line x1="17.77916509269487" x2="14.485597741380797" y1="131.38656308419473" y2="134.68013043550883" stroke-width="3" stroke="#a9f0f9" stroke-linecap="round"></line><line x1="273.7791650926949" x2="270.4855977413808" y1="131.38656308419473" y2="134.68013043550883" stroke-width="3" stroke="#a9f0f9" stroke-linecap="round"></line><line x1="529.7791650926948" x2="526.4855977413808" y1="131.38656308419473" y2="134.68013043550883" stroke-width="3" stroke="#a9f0f9" stroke-linecap="round"></line><line x1="154.61499490105535" x2="148.27338405423774" y1="218.30405955654317" y2="224.64567040336078" stroke-width="3" stroke="#a9f0f9" stroke-linecap="round"></line><line x1="154.61499490105535" x2="148.27338405423774" y1="-293.69594044345683" y2="-287.3543295966392" stroke-width="3" stroke="#a9f0f9" stroke-linecap="round"></line><line x1="410.61499490105535" x2="404.27338405423774" y1="-293.69594044345683" y2="-287.3543295966392" stroke-width="3" stroke="#a9f0f9" stroke-linecap="round"></line><line x1="666.6149949010553" x2="660.2733840542378" y1="-293.69594044345683" y2="-287.3543295966392" stroke-width="3" stroke="#a9f0f9" stroke-linecap="round"></line><line x1="154.61499490105535" x2="148.27338405423774" y1="-37.695940443456834" y2="-31.354329596639218" stroke-width="3" stroke="#a9f0f9" stroke-linecap="round"></line><line x1="410.61499490105535" x2="404.27338405423774" y1="-37.695940443456834" y2="-31.354329596639218" stroke-width="3" stroke="#a9f0f9" stroke-linecap="round"></line><line x1="666.6149949010553" x2="660.2733840542378" y1="-37.695940443456834" y2="-31.354329596639218" stroke-width="3" stroke="#a9f0f9" stroke-linecap="round"></line><line x1="154.61499490105535" x2="148.27338405423774" y1="218.30405955654317" y2="224.64567040336078" stroke-width="3" stroke="#a9f0f9" stroke-linecap="round"></line><line x1="410.61499490105535" x2="404.27338405423774" y1="218.30405955654317" y2="224.64567040336078" stroke-width="3" stroke="#a9f0f9" stroke-linecap="round"></line><line x1="666.6149949010553" x2="660.2733840542378" y1="218.30405955654317" y2="224.64567040336078" stroke-width="3" stroke="#a9f0f9" stroke-linecap="round"></line><line x1="175.05355536432307" x2="169.8310167240037" y1="238.01333933779665" y2="243.23587797811604" stroke-width="3" stroke="#a9f0f9" stroke-linecap="round"></line><line x1="175.05355536432307" x2="169.8310167240037" y1="-273.98666066220335" y2="-268.76412202188396" stroke-width="3" stroke="#a9f0f9" stroke-linecap="round"></line><line x1="431.0535553643231" x2="425.8310167240037" y1="-273.98666066220335" y2="-268.76412202188396" stroke-width="3" stroke="#a9f0f9" stroke-linecap="round"></line><line x1="687.0535553643231" x2="681.8310167240037" y1="-273.98666066220335" y2="-268.76412202188396" stroke-width="3" stroke="#a9f0f9" stroke-linecap="round"></line><line x1="175.05355536432307" x2="169.8310167240037" y1="-17.98666066220335" y2="-12.764122021883963" stroke-width="3" stroke="#a9f0f9" stroke-linecap="round"></line><line x1="431.0535553643231" x2="425.8310167240037" y1="-17.98666066220335" y2="-12.764122021883963" stroke-width="3" stroke="#a9f0f9" stroke-linecap="round"></line><line x1="687.0535553643231" x2="681.8310167240037" y1="-17.98666066220335" y2="-12.764122021883963" stroke-width="3" stroke="#a9f0f9" stroke-linecap="round"></line><line x1="175.05355536432307" x2="169.8310167240037" y1="238.01333933779665" y2="243.23587797811604" stroke-width="3" stroke="#a9f0f9" stroke-linecap="round"></line><line x1="431.0535553643231" x2="425.8310167240037" y1="238.01333933779665" y2="243.23587797811604" stroke-width="3" stroke="#a9f0f9" stroke-linecap="round"></line><line x1="687.0535553643231" x2="681.8310167240037" y1="238.01333933779665" y2="243.23587797811604" stroke-width="3" stroke="#a9f0f9" stroke-linecap="round"></line><line x1="210.70250624834534" x2="205.46261674677646" y1="94.26774297139957" y2="99.50763247296845" stroke-width="3" stroke="#a9f0f9" stroke-linecap="round"></line><line x1="210.70250624834534" x2="205.46261674677646" y1="-417.73225702860043" y2="-412.49236752703155" stroke-width="3" stroke="#a9f0f9" stroke-linecap="round"></line><line x1="466.70250624834534" x2="461.46261674677646" y1="-417.73225702860043" y2="-412.49236752703155" stroke-width="3" stroke="#a9f0f9" stroke-linecap="round"></line><line x1="722.7025062483453" x2="717.4626167467765" y1="-417.73225702860043" y2="-412.49236752703155" stroke-width="3" stroke="#a9f0f9" stroke-linecap="round"></line><line x1="210.70250624834534" x2="205.46261674677646" y1="-161.73225702860043" y2="-156.49236752703155" stroke-width="3" stroke="#a9f0f9" stroke-linecap="round"></line><line x1="466.70250624834534" x2="461.46261674677646" y1="-161.73225702860043" y2="-156.49236752703155" stroke-width="3" stroke="#a9f0f9" stroke-linecap="round"></line><line x1="722.7025062483453" x2="717.4626167467765" y1="-161.73225702860043" y2="-156.49236752703155" stroke-width="3" stroke="#a9f0f9" stroke-linecap="round"></line><line x1="210.70250624834534" x2="205.46261674677646" y1="94.26774297139957" y2="99.50763247296845" stroke-width="3" stroke="#a9f0f9" stroke-linecap="round"></line><line x1="466.70250624834534" x2="461.46261674677646" y1="94.26774297139957" y2="99.50763247296845" stroke-width="3" stroke="#a9f0f9" stroke-linecap="round"></line><line x1="722.7025062483453" x2="717.4626167467765" y1="94.26774297139957" y2="99.50763247296845" stroke-width="3" stroke="#a9f0f9" stroke-linecap="round"></line><line x1="28.82398301578708" x2="23.286034859113713" y1="31.483204812748554" y2="37.02115296942192" stroke-width="3" stroke="#a9f0f9" stroke-linecap="round"></line><line x1="28.82398301578708" x2="23.286034859113713" y1="-480.51679518725143" y2="-474.9788470305781" stroke-width="3" stroke="#a9f0f9" stroke-linecap="round"></line><line x1="284.82398301578706" x2="279.2860348591137" y1="-480.51679518725143" y2="-474.9788470305781" stroke-width="3" stroke="#a9f0f9" stroke-linecap="round"></line><line x1="540.8239830157871" x2="535.2860348591137" y1="-480.51679518725143" y2="-474.9788470305781" stroke-width="3" stroke="#a9f0f9" stroke-linecap="round"></line><line x1="28.82398301578708" x2="23.286034859113713" y1="-224.51679518725143" y2="-218.9788470305781" stroke-width="3" stroke="#a9f0f9" stroke-linecap="round"></line><line x1="284.82398301578706" x2="279.2860348591137" y1="-224.51679518725143" y2="-218.9788470305781" stroke-width="3" stroke="#a9f0f9" stroke-linecap="round"></line><line x1="540.8239830157871" x2="535.2860348591137" y1="-224.51679518725143" y2="-218.9788470305781" stroke-width="3" stroke="#a9f0f9" stroke-linecap="round"></line><line x1="28.82398301578708" x2="23.286034859113713" y1="31.483204812748554" y2="37.02115296942192" stroke-width="3" stroke="#a9f0f9" stroke-linecap="round"></line><line x1="284.82398301578706" x2="279.2860348591137" y1="31.483204812748554" y2="37.02115296942192" stroke-width="3" stroke="#a9f0f9" stroke-linecap="round"></line><line x1="540.8239830157871" x2="535.2860348591137" y1="31.483204812748554" y2="37.02115296942192" stroke-width="3" stroke="#a9f0f9" stroke-linecap="round"></line><line x1="122.3323794492152" x2="118.493756039677" y1="102.50951681400674" y2="106.34814022354495" stroke-width="3" stroke="#38e0f5" stroke-linecap="round"></line><line x1="122.3323794492152" x2="118.493756039677" y1="-409.49048318599324" y2="-405.65185977645507" stroke-width="3" stroke="#38e0f5" stroke-linecap="round"></line><line x1="378.3323794492152" x2="374.493756039677" y1="-409.49048318599324" y2="-405.65185977645507" stroke-width="3" stroke="#38e0f5" stroke-linecap="round"></line><line x1="634.3323794492152" x2="630.493756039677" y1="-409.49048318599324" y2="-405.65185977645507" stroke-width="3" stroke="#38e0f5" stroke-linecap="round"></line><line x1="122.3323794492152" x2="118.493756039677" y1="-153.49048318599324" y2="-149.65185977645507" stroke-width="3" stroke="#38e0f5" stroke-linecap="round"></line><line x1="378.3323794492152" x2="374.493756039677" y1="-153.49048318599324" y2="-149.65185977645507" stroke-width="3" stroke="#38e0f5" stroke-linecap="round"></line><line x1="634.3323794492152" x2="630.493756039677" y1="-153.49048318599324" y2="-149.65185977645507" stroke-width="3" stroke="#38e0f5" stroke-linecap="round"></line><line x1="122.3323794492152" x2="118.493756039677" y1="102.50951681400674" y2="106.34814022354495" stroke-width="3" stroke="#38e0f5" stroke-linecap="round"></line><line x1="378.3323794492152" x2="374.493756039677" y1="102.50951681400674" y2="106.34814022354495" stroke-width="3" stroke="#38e0f5" stroke-linecap="round"></line><line x1="634.3323794492152" x2="630.493756039677" y1="102.50951681400674" y2="106.34814022354495" stroke-width="3" stroke="#38e0f5" stroke-linecap="round"></line><line x1="154.36188423187446" x2="148.8529429745971" y1="189.8676006868277" y2="195.37654194410504" stroke-width="3" stroke="#a9f0f9" stroke-linecap="round"></line><line x1="154.36188423187446" x2="148.8529429745971" y1="-322.1323993131723" y2="-316.62345805589496" stroke-width="3" stroke="#a9f0f9" stroke-linecap="round"></line><line x1="410.36188423187446" x2="404.8529429745971" y1="-322.1323993131723" y2="-316.62345805589496" stroke-width="3" stroke="#a9f0f9" stroke-linecap="round"></line><line x1="666.3618842318745" x2="660.8529429745971" y1="-322.1323993131723" y2="-316.62345805589496" stroke-width="3" stroke="#a9f0f9" stroke-linecap="round"></line><line x1="154.36188423187446" x2="148.8529429745971" y1="-66.1323993131723" y2="-60.62345805589496" stroke-width="3" stroke="#a9f0f9" stroke-linecap="round"></line><line x1="410.36188423187446" x2="404.8529429745971" y1="-66.1323993131723" y2="-60.62345805589496" stroke-width="3" stroke="#a9f0f9" stroke-linecap="round"></line><line x1="666.3618842318745" x2="660.8529429745971" y1="-66.1323993131723" y2="-60.62345805589496" stroke-width="3" stroke="#a9f0f9" stroke-linecap="round"></line><line x1="154.36188423187446" x2="148.8529429745971" y1="189.8676006868277" y2="195.37654194410504" stroke-width="3" stroke="#a9f0f9" stroke-linecap="round"></line><line x1="410.36188423187446" x2="404.8529429745971" y1="189.8676006868277" y2="195.37654194410504" stroke-width="3" stroke="#a9f0f9" stroke-linecap="round"></line><line x1="666.3618842318745" x2="660.8529429745971" y1="189.8676006868277" y2="195.37654194410504" stroke-width="3" stroke="#a9f0f9" stroke-linecap="round"></line><line x1="180.88880975837483" x2="174.443884776467" y1="45.211211637540444" y2="51.656136619448304" stroke-width="3" stroke="#a9f0f9" stroke-linecap="round"></line><line x1="180.88880975837483" x2="174.443884776467" y1="-466.78878836245957" y2="-460.3438633805517" stroke-width="3" stroke="#a9f0f9" stroke-linecap="round"></line><line x1="436.8888097583748" x2="430.44388477646703" y1="-466.78878836245957" y2="-460.3438633805517" stroke-width="3" stroke="#a9f0f9" stroke-linecap="round"></line><line x1="692.8888097583748" x2="686.443884776467" y1="-466.78878836245957" y2="-460.3438633805517" stroke-width="3" stroke="#a9f0f9" stroke-linecap="round"></line><line x1="180.88880975837483" x2="174.443884776467" y1="-210.78878836245957" y2="-204.34386338055168" stroke-width="3" stroke="#a9f0f9" stroke-linecap="round"></line><line x1="436.8888097583748" x2="430.44388477646703" y1="-210.78878836245957" y2="-204.34386338055168" stroke-width="3" stroke="#a9f0f9" stroke-linecap="round"></line><line x1="692.8888097583748" x2="686.443884776467" y1="-210.78878836245957" y2="-204.34386338055168" stroke-width="3" stroke="#a9f0f9" stroke-linecap="round"></line><line x1="180.88880975837483" x2="174.443884776467" y1="45.211211637540444" y2="51.656136619448304" stroke-width="3" stroke="#a9f0f9" stroke-linecap="round"></line><line x1="436.8888097583748" x2="430.44388477646703" y1="45.211211637540444" y2="51.656136619448304" stroke-width="3" stroke="#a9f0f9" stroke-linecap="round"></line><line x1="692.8888097583748" x2="686.443884776467" y1="45.211211637540444" y2="51.656136619448304" stroke-width="3" stroke="#a9f0f9" stroke-linecap="round"></line><line x1="168.1943196382452" x2="161.21269308995153" y1="217.96415719611394" y2="224.9457837444076" stroke-width="3" stroke="#a9f0f9" stroke-linecap="round"></line><line x1="168.1943196382452" x2="161.21269308995153" y1="-294.03584280388606" y2="-287.0542162555924" stroke-width="3" stroke="#a9f0f9" stroke-linecap="round"></line><line x1="424.1943196382452" x2="417.21269308995153" y1="-294.03584280388606" y2="-287.0542162555924" stroke-width="3" stroke="#a9f0f9" stroke-linecap="round"></line><line x1="680.1943196382451" x2="673.2126930899515" y1="-294.03584280388606" y2="-287.0542162555924" stroke-width="3" stroke="#a9f0f9" stroke-linecap="round"></line><line x1="168.1943196382452" x2="161.21269308995153" y1="-38.035842803886055" y2="-31.054216255592394" stroke-width="3" stroke="#a9f0f9" stroke-linecap="round"></line><line x1="424.1943196382452" x2="417.21269308995153" y1="-38.035842803886055" y2="-31.054216255592394" stroke-width="3" stroke="#a9f0f9" stroke-linecap="round"></line><line x1="680.1943196382451" x2="673.2126930899515" y1="-38.035842803886055" y2="-31.054216255592394" stroke-width="3" stroke="#a9f0f9" stroke-linecap="round"></line><line x1="168.1943196382452" x2="161.21269308995153" y1="217.96415719611394" y2="224.9457837444076" stroke-width="3" stroke="#a9f0f9" stroke-linecap="round"></line><line x1="424.1943196382452" x2="417.21269308995153" y1="217.96415719611394" y2="224.9457837444076" stroke-width="3" stroke="#a9f0f9" stroke-linecap="round"></line><line x1="680.1943196382451" x2="673.2126930899515" y1="217.96415719611394" y2="224.9457837444076" stroke-width="3" stroke="#a9f0f9" stroke-linecap="round"></line><line x1="112.40616344909877" x2="108.79681001021997" y1="177.75452786958812" y2="181.3638813084669" stroke-width="3" stroke="#a9f0f9" stroke-linecap="round"></line><line x1="112.40616344909877" x2="108.79681001021997" y1="-334.2454721304119" y2="-330.6361186915331" stroke-width="3" stroke="#a9f0f9" stroke-linecap="round"></line><line x1="368.40616344909876" x2="364.79681001022" y1="-334.2454721304119" y2="-330.6361186915331" stroke-width="3" stroke="#a9f0f9" stroke-linecap="round"></line><line x1="624.4061634490988" x2="620.7968100102199" y1="-334.2454721304119" y2="-330.6361186915331" stroke-width="3" stroke="#a9f0f9" stroke-linecap="round"></line><line x1="112.40616344909877" x2="108.79681001021997" y1="-78.24547213041188" y2="-74.63611869153311" stroke-width="3" stroke="#a9f0f9" stroke-linecap="round"></line><line x1="368.40616344909876" x2="364.79681001022" y1="-78.24547213041188" y2="-74.63611869153311" stroke-width="3" stroke="#a9f0f9" stroke-linecap="round"></line><line x1="624.4061634490988" x2="620.7968100102199" y1="-78.24547213041188" y2="-74.63611869153311" stroke-width="3" stroke="#a9f0f9" stroke-linecap="round"></line><line x1="112.40616344909877" x2="108.79681001021997" y1="177.75452786958812" y2="181.3638813084669" stroke-width="3" stroke="#a9f0f9" stroke-linecap="round"></line><line x1="368.40616344909876" x2="364.79681001022" y1="177.75452786958812" y2="181.3638813084669" stroke-width="3" stroke="#a9f0f9" stroke-linecap="round"></line><line x1="624.4061634490988" x2="620.7968100102199" y1="177.75452786958812" y2="181.3638813084669" stroke-width="3" stroke="#a9f0f9" stroke-linecap="round"></line><line x1="192.8882955498595" x2="188.13320929335106" y1="124.46212704953905" y2="129.21721330604748" stroke-width="3" stroke="#a9f0f9" stroke-linecap="round"></line><line x1="192.8882955498595" x2="188.13320929335106" y1="-387.53787295046095" y2="-382.7827866939525" stroke-width="3" stroke="#a9f0f9" stroke-linecap="round"></line><line x1="448.8882955498595" x2="444.13320929335106" y1="-387.53787295046095" y2="-382.7827866939525" stroke-width="3" stroke="#a9f0f9" stroke-linecap="round"></line><line x1="704.8882955498595" x2="700.133209293351" y1="-387.53787295046095" y2="-382.7827866939525" stroke-width="3" stroke="#a9f0f9" stroke-linecap="round"></line><line x1="192.8882955498595" x2="188.13320929335106" y1="-131.53787295046095" y2="-126.78278669395252" stroke-width="3" stroke="#a9f0f9" stroke-linecap="round"></line><line x1="448.8882955498595" x2="444.13320929335106" y1="-131.53787295046095" y2="-126.78278669395252" stroke-width="3" stroke="#a9f0f9" stroke-linecap="round"></line><line x1="704.8882955498595" x2="700.133209293351" y1="-131.53787295046095" y2="-126.78278669395252" stroke-width="3" stroke="#a9f0f9" stroke-linecap="round"></line><line x1="192.8882955498595" x2="188.13320929335106" y1="124.46212704953905" y2="129.21721330604748" stroke-width="3" stroke="#a9f0f9" stroke-linecap="round"></line><line x1="448.8882955498595" x2="444.13320929335106" y1="124.46212704953905" y2="129.21721330604748" stroke-width="3" stroke="#a9f0f9" stroke-linecap="round"></line><line x1="704.8882955498595" x2="700.133209293351" y1="124.46212704953905" y2="129.21721330604748" stroke-width="3" stroke="#a9f0f9" stroke-linecap="round"></line><line x1="156.97047788381508" x2="153.8115467858819" y1="43.605021271872836" y2="46.76395236980601" stroke-width="3" stroke="#a9f0f9" stroke-linecap="round"></line><line x1="156.97047788381508" x2="153.8115467858819" y1="-468.39497872812717" y2="-465.236047630194" stroke-width="3" stroke="#a9f0f9" stroke-linecap="round"></line><line x1="412.9704778838151" x2="409.8115467858819" y1="-468.39497872812717" y2="-465.236047630194" stroke-width="3" stroke="#a9f0f9" stroke-linecap="round"></line><line x1="668.9704778838151" x2="665.8115467858819" y1="-468.39497872812717" y2="-465.236047630194" stroke-width="3" stroke="#a9f0f9" stroke-linecap="round"></line><line x1="156.97047788381508" x2="153.8115467858819" y1="-212.39497872812717" y2="-209.23604763019398" stroke-width="3" stroke="#a9f0f9" stroke-linecap="round"></line><line x1="412.9704778838151" x2="409.8115467858819" y1="-212.39497872812717" y2="-209.23604763019398" stroke-width="3" stroke="#a9f0f9" stroke-linecap="round"></line><line x1="668.9704778838151" x2="665.8115467858819" y1="-212.39497872812717" y2="-209.23604763019398" stroke-width="3" stroke="#a9f0f9" stroke-linecap="round"></line><line x1="156.97047788381508" x2="153.8115467858819" y1="43.605021271872836" y2="46.76395236980601" stroke-width="3" stroke="#a9f0f9" stroke-linecap="round"></line><line x1="412.9704778838151" x2="409.8115467858819" y1="43.605021271872836" y2="46.76395236980601" stroke-width="3" stroke="#a9f0f9" stroke-linecap="round"></line><line x1="668.9704778838151" x2="665.8115467858819" y1="43.605021271872836" y2="46.76395236980601" stroke-width="3" stroke="#a9f0f9" stroke-linecap="round"></line><line x1="113.2460142673886" x2="110.07960751340732" y1="219.87383639901907" y2="223.04024315300035" stroke-width="3" stroke="#a9f0f9" stroke-linecap="round"></line><line x1="113.2460142673886" x2="110.07960751340732" y1="-292.12616360098093" y2="-288.95975684699965" stroke-width="3" stroke="#a9f0f9" stroke-linecap="round"></line><line x1="369.2460142673886" x2="366.0796075134073" y1="-292.12616360098093" y2="-288.95975684699965" stroke-width="3" stroke="#a9f0f9" stroke-linecap="round"></line><line x1="625.2460142673885" x2="622.0796075134074" y1="-292.12616360098093" y2="-288.95975684699965" stroke-width="3" stroke="#a9f0f9" stroke-linecap="round"></line><line x1="113.2460142673886" x2="110.07960751340732" y1="-36.12616360098093" y2="-32.95975684699965" stroke-width="3" stroke="#a9f0f9" stroke-linecap="round"></line><line x1="369.2460142673886" x2="366.0796075134073" y1="-36.12616360098093" y2="-32.95975684699965" stroke-width="3" stroke="#a9f0f9" stroke-linecap="round"></line><line x1="625.2460142673885" x2="622.0796075134074" y1="-36.12616360098093" y2="-32.95975684699965" stroke-width="3" stroke="#a9f0f9" stroke-linecap="round"></line><line x1="113.2460142673886" x2="110.07960751340732" y1="219.87383639901907" y2="223.04024315300035" stroke-width="3" stroke="#a9f0f9" stroke-linecap="round"></line><line x1="369.2460142673886" x2="366.0796075134073" y1="219.87383639901907" y2="223.04024315300035" stroke-width="3" stroke="#a9f0f9" stroke-linecap="round"></line><line x1="625.2460142673885" x2="622.0796075134074" y1="219.87383639901907" y2="223.04024315300035" stroke-width="3" stroke="#a9f0f9" stroke-linecap="round"></line>
  <animateTransform attributeName="transform" type="translate" values="0 0;-256 256" keyTimes="0;1" repeatCount="indefinite" dur="1.1904761904761905s"></animateTransform>
</g></g></svg>